<svg id="ew8Svf1dVbG1" xmlns="http://www.w3.org/2000/svg" xmlns:xlink="http://www.w3.org/1999/xlink" viewBox="0 0 1176.4 566.9" shape-rendering="geometricPrecision" text-rendering="geometricPrecision"><defs><linearGradient id="ew8Svf1dVbG2-fill" x1="60.9059" y1="-39.0666" x2="1038.1523" y2="558.7004" spreadMethod="pad" gradientUnits="userSpaceOnUse" gradientTransform="translate(0 0)"><stop id="ew8Svf1dVbG2-fill-0" offset="0%" stop-color="#f0dae9"/><stop id="ew8Svf1dVbG2-fill-1" offset="33.91%" stop-color="#f3dfe5"/><stop id="ew8Svf1dVbG2-fill-2" offset="88.16%" stop-color="#fbedd3"/><stop id="ew8Svf1dVbG2-fill-3" offset="95.83%" stop-color="#fdefd0"/></linearGradient></defs><path d="M1131,566.9h-1085.6C20.3,566.9,0,546.6,0,521.5L0,45.4C0,20.3,20.3,0,45.4,0L1131,0c25.1,0,45.4,20.3,45.4,45.4v476.1c0,25.1-20.3,45.4-45.4,45.4Z" transform="translate(3.75 0)" fill="url(#ew8Svf1dVbG2-fill)"/><g id="ew8Svf1dVbG3" transform="translate(0 29.800003)" opacity="0"><path d="M45.6,108.2c0-3.2,2.7-4.9,9.5-5.3-.1-1.3-1.1-2.1-3.1-2.1-1.4,0-2.8.5-4.4,1.3l-1.5-2.8c2-1.1,4.3-1.9,6.7-1.9c4,0,6.5,2.1,6.5,6.5v8.2h-3.5l-.3-1.6h-.1c-1.5,1.1-3.3,2-5.1,2-2.9,0-4.7-1.9-4.7-4.3Zm9.4-.4v-2.4c-4.2.2-5.4,1.1-5.4,2.4c0,.9.8,1.4,2,1.4c1.3,0,2.4-.6,3.4-1.4Z"/><path d="M61.3,97.8h4.1l.9,6.7c.2,1.4.3,2.8.5,4.3h.1c.2-1.5.4-2.9.7-4.3l.9-4.8h3.1l.9,4.8c.3,1.4.5,2.8.7,4.3h.1c.2-1.5.3-2.8.4-4.3l.8-6.7h4l-2.2,14.4h-5l-.8-4.7c-.2-1.2-.4-2.6-.5-4.3h-.1c-.1,1.2-.3,2.5-.5,4.3l-.8,4.7h-4.9L61.3,97.8Z"/><path d="M80.4,108.2c0-3.2,2.7-4.9,9.5-5.3-.1-1.3-1.1-2.1-3.1-2.1-1.4,0-2.8.5-4.4,1.3l-1.5-2.8c2-1.1,4.3-1.9,6.7-1.9c4,0,6.5,2.1,6.5,6.5v8.2h-3.5l-.3-1.6h-.1c-1.5,1.1-3.3,2-5.1,2-2.9,0-4.7-1.9-4.7-4.3Zm9.4-.4v-2.4c-4.2.2-5.4,1.1-5.4,2.4c0,.9.8,1.4,2,1.4c1.3,0,2.4-.6,3.4-1.4Z"/><path d="M104,101.1h-5.8v-3.3h10.1v14.4h-4.3v-11.1Zm-.8-8.2c0-1.6,1.2-2.7,2.8-2.7s2.8,1.1,2.8,2.7-1.2,2.6-2.8,2.6-2.8-1-2.8-2.6Z"/><path d="M118.4,106.2v-5.1h-3.6v-3.1l3.8-.2.5-4.4h3.5v4.4h6.1v3.3h-6.1v5c0,2.2.9,3,3,3c1.1,0,2-.2,2.8-.5l.8,3.1c-1.3.4-2.8.8-4.7.8-4.4,0-6.1-2.5-6.1-6.3Z"/><path d="M150.1,110.3l1.3-1.9c1.7,1.1,3.6,1.9,6,1.9c2.2,0,3.2-.9,3.2-1.9s-.6-1.6-4.2-2.4c-3.7-.8-5.5-2.1-5.5-4.2c0-2.4,2.1-4.1,6.1-4.1c2.3,0,4.4.9,5.8,1.8l-1.4,1.8c-1.3-.9-3-1.5-4.7-1.5-2.1,0-2.9.8-2.9,1.8c0,1.1,1.1,1.5,3.9,2.1c4.6,1,5.8,2.2,5.8,4.4c0,2.4-2.3,4.3-6.5,4.3-2.6.1-5.2-.9-6.9-2.1Z" fill="#e4007f"/><path d="M168.1,98h2.4l.2,1.7h.1c1.3-1.2,3.1-2.1,4.7-2.1c3.7,0,5.8,2.8,5.8,7.2c0,4.8-3,7.6-6.4,7.6-1.3,0-2.8-.6-4-1.8h-.1l.1,2.6v4.6h-2.9v-19.8Zm10.3,6.9c0-3-1.1-4.8-3.6-4.8-1.2,0-2.5.6-3.7,1.9v6.7c1.2,1.1,2.5,1.5,3.4,1.5c2.2-.1,3.9-2,3.9-5.3Z" fill="#e4007f"/><path d="M184.9,105.1c0-4.6,3.5-7.4,7.3-7.4c4.2,0,6.5,2.7,6.5,6.7c0,.6-.1,1.2-.1,1.6h-11.7v-2.1h9.9l-.6.7c0-3.1-1.5-4.6-3.9-4.6-2.5,0-4.5,1.8-4.5,5.2c0,3.5,2.2,5.2,5.2,5.2c1.6,0,2.9-.5,4.1-1.2l1,1.8c-1.5,1-3.3,1.7-5.5,1.7-4.4-.2-7.7-2.9-7.7-7.6Z" fill="#e4007f"/><path d="M202.3,105.1c0-4.6,3.5-7.4,7.3-7.4c4.2,0,6.5,2.7,6.5,6.7c0,.6-.1,1.2-.1,1.6h-11.7v-2.1h9.9l-.6.7c0-3.1-1.5-4.6-3.9-4.6-2.5,0-4.5,1.8-4.5,5.2c0,3.5,2.2,5.2,5.2,5.2c1.6,0,2.9-.5,4.1-1.2l1,1.8c-1.5,1-3.3,1.7-5.5,1.7-4.4-.2-7.7-2.9-7.7-7.6Z" fill="#e4007f"/><path d="M220,105.1c0-4.7,3.7-7.5,8-7.5c2.3,0,4,.9,5.2,2l-1.4,1.8c-1.1-.9-2.3-1.5-3.7-1.5-3,0-5.1,2-5.1,5.1c0,3,2.1,5,5.1,5c1.7,0,3.1-.8,4.2-1.7l1.2,1.9c-1.6,1.4-3.6,2.2-5.7,2.2-4.5.1-7.8-2.6-7.8-7.3Z" fill="#e4007f"/><path d="M237.7,91.6h2.9v5.5l-.2,3.2h.1c1.3-1.4,3-2.6,5.1-2.6c3.3,0,4.8,2,4.8,5.7v8.8h-2.9v-8.4c0-2.5-.8-3.6-2.9-3.6-1.5,0-2.6.8-4,2.3v9.8h-2.9v-20.7Z" fill="#e4007f"/><path d="M253.9,102.6c0-6.2,3-9.8,7.4-9.8c4.3,0,7.4,3.6,7.4,9.8c0,6.3-3,9.9-7.4,9.9s-7.4-3.6-7.4-9.9Zm11.8,0c0-4.6-1.7-7.2-4.4-7.2s-4.4,2.6-4.4,7.2c0,4.7,1.7,7.4,4.4,7.4s4.4-2.7,4.4-7.4Z" fill="#e4007f"/><path d="M272.1,106.8v-8.8h2.9v8.4c0,2.5.8,3.6,3,3.6c1.5,0,2.6-.7,4-2.3v-9.7h2.9v14.2h-2.4l-.2-2.4h-.1c-1.4,1.6-3,2.7-5.1,2.7-3.5,0-5-2-5-5.7Z" fill="#e4007f"/><path d="M293.1,106.6v-6.3h-3.9v-2.2l4-.2.4-4.5h2.4v4.6h6.7v2.3h-6.7v6.3c0,2.4.9,3.6,3.4,3.6c1.2,0,2.3-.2,3.2-.6l.6,2.1c-1.3.4-2.7.8-4.5.8-4.2,0-5.6-2.4-5.6-5.9Z" fill="#e4007f"/><path d="M310.9,109.8c0-1.6,1.1-2.7,2.6-2.7s2.6,1.1,2.6,2.7-1.1,2.7-2.6,2.7-2.6-1.1-2.6-2.7Z"/><path d="M324,109.7l1.7-2c1.4,1.4,3.4,2.3,5.4,2.3c2.4,0,3.7-1.1,3.7-2.6c0-1.9-1.4-2.4-3.3-3.2l-2.7-1.2c-1.9-.8-4.1-2.2-4.1-5c0-3,2.7-5.2,6.4-5.2c2.4,0,4.5.9,6,2.4l-1.5,1.9c-1.3-1.1-2.6-1.7-4.6-1.7s-3.3.9-3.3,2.5s1.6,2.3,3.3,2.9l2.6,1.1c2.4.9,4.2,2.3,4.2,5.1c0,3-2.6,5.5-6.9,5.5-2.7,0-5.1-1-6.9-2.8Z" fill="#036eb8"/><path d="M342.1,98h2.4l.2,1.7h.1c1.3-1.2,3.1-2.1,4.7-2.1c3.7,0,5.8,2.8,5.8,7.2c0,4.8-3,7.6-6.4,7.6-1.3,0-2.8-.6-4-1.8h-.1l.1,2.6v4.6h-2.9v-19.8Zm10.3,6.9c0-3-1.1-4.8-3.6-4.8-1.2,0-2.5.6-3.7,1.9v6.7c1.2,1.1,2.5,1.5,3.4,1.5c2.2-.1,3.9-2,3.9-5.3Z" fill="#036eb8"/><path d="M358.8,105.1c0-4.6,3.5-7.4,7.3-7.4c4.2,0,6.5,2.7,6.5,6.7c0,.6-.1,1.2-.1,1.6h-11.7v-2.1h9.9l-.6.7c0-3.1-1.5-4.6-3.9-4.6-2.5,0-4.5,1.8-4.5,5.2c0,3.5,2.2,5.2,5.2,5.2c1.6,0,2.9-.5,4.1-1.2l1,1.8c-1.5,1-3.3,1.7-5.5,1.7-4.3-.2-7.7-2.9-7.7-7.6Z" fill="#036eb8"/><path d="M376.6,108.4c0-3.2,2.9-4.7,10-5.3-.1-1.8-1-3.2-3.6-3.2-1.7,0-3.4.8-4.8,1.6l-1.1-1.9c1.6-1,3.9-2,6.4-2c3.9,0,5.9,2.2,5.9,6v8.5h-2.4l-.2-1.8h-.1c-1.5,1.2-3.5,2.2-5.4,2.2-2.7,0-4.7-1.6-4.7-4.1Zm10-.1v-3.3c-5.6.4-7.2,1.5-7.2,3.2c0,1.4,1.3,2,2.8,2s2.9-.7,4.4-1.9Z" fill="#036eb8"/><path d="M394.6,91.6h2.9v13.4h.1l7-7h3.2l-10.3,10.4v3.8h-2.9v-20.6Zm5.6,13.3l1.7-1.8l6.6,9.1h-3.2l-5.1-7.3Z" fill="#036eb8"/><path d="M415,104.1c0-5.6,2.4-10,6.4-13.2l1.6,1.4c-3.8,3.3-5.5,7-5.5,11.8s1.7,8.5,5.5,11.8l-1.6,1.4c-4-3.2-6.4-7.6-6.4-13.2Z"/><path d="M430,95.7l-.1-3.5h3.6l-.1,3.5-.8,6.6h-1.9l-.7-6.6Zm7,0l-.1-3.5h3.6l-.1,3.5-.8,6.6h-1.9l-.7-6.6Z"/><path d="M446.1,93.2h2.9v7.8h7.2v-7.8h2.9v19h-2.9v-8.7h-7.2v8.7h-2.9v-19Z"/><path d="M463.2,105.1c0-4.6,3.5-7.4,7.3-7.4c4.2,0,6.5,2.7,6.5,6.7c0,.6-.1,1.2-.1,1.6h-11.7v-2.1h9.9l-.6.7c0-3.1-1.5-4.6-3.9-4.6-2.5,0-4.5,1.8-4.5,5.2c0,3.5,2.2,5.2,5.2,5.2c1.6,0,2.9-.5,4.1-1.2l1,1.8c-1.5,1-3.3,1.7-5.5,1.7-4.3-.2-7.7-2.9-7.7-7.6Z"/><path d="M485.6,107.2v-13.3h-4.9v-2.3h7.8v15.8c0,2,1.1,2.8,2.7,2.8.8,0,1.6-.2,2.5-.6l.7,2.1c-1.4.5-2.3.8-3.9.8-3.2,0-4.9-1.9-4.9-5.3Z"/><path d="M503,107.2v-13.3h-4.9v-2.3h7.8v15.8c0,2,1.1,2.8,2.7,2.8.8,0,1.6-.2,2.5-.6l.7,2.1c-1.4.5-2.3.8-3.9.8-3.2,0-4.9-1.9-4.9-5.3Z"/><path d="M515.2,105.1c0-4.7,3.3-7.5,7.1-7.5s7.1,2.7,7.1,7.5c0,4.7-3.3,7.4-7.1,7.4s-7.1-2.7-7.1-7.4Zm11.2,0c0-3.1-1.6-5.1-4.1-5.1s-4.1,2-4.1,5.1c0,3,1.6,5,4.1,5s4.1-2,4.1-5Z"/><path d="M537.3,110.1c0-1.5,1.1-2.4,2.3-2.4s2.3.9,2.3,2.4-1.1,2.4-2.3,2.4-2.3-.9-2.3-2.4Zm1-14.3l-.1-3h2.9l-.1,3-.4,9.5h-1.9l-.4-9.5Z"/><path d="M551.8,95.7l-.1-3.5h3.6l-.1,3.5-.8,6.6h-1.9l-.7-6.6Zm7,0l-.1-3.5h3.6l-.1,3.5-.8,6.6h-1.9l-.7-6.6Z"/><path d="M569.3,115.9c3.8-3.3,5.5-7,5.5-11.8s-1.7-8.5-5.5-11.8l1.6-1.4c4,3.2,6.4,7.6,6.4,13.2s-2.4,10-6.4,13.2l-1.6-1.4Z"/><path d="M588.8,116.6c2.5-1.1,3.7-2.6,3.7-4.9l-.4-2.9l1.7,2.5c-.5.5-1.1.7-1.7.7-1.4,0-2.5-.8-2.5-2.4c0-1.5,1.2-2.4,2.6-2.4c1.9,0,2.9,1.5,2.9,4c0,3.5-2,5.9-5.4,7.1l-.9-1.7Zm.5-16.9c0-1.6,1.1-2.7,2.6-2.7s2.6,1.1,2.6,2.7-1.1,2.7-2.6,2.7-2.6-1.1-2.6-2.7Z"/></g><g id="ew8Svf1dVbG35" transform="translate(-1.700001 26.300003)" opacity="0"><path d="M47.3,181.6c0-3.2,2.7-4.9,9.5-5.3-.1-1.3-1.1-2.1-3.1-2.1-1.4,0-2.8.5-4.4,1.3l-1.5-2.8c2-1.1,4.3-1.9,6.7-1.9c4,0,6.5,2.1,6.5,6.5v8.2h-3.5l-.3-1.6h-.1c-1.5,1.1-3.3,2-5.1,2-2.9.1-4.7-1.8-4.7-4.3Zm9.5-.3v-2.4c-4.2.2-5.4,1.1-5.4,2.4c0,.9.8,1.4,2,1.4c1.3,0,2.4-.6,3.4-1.4Z"/><path d="M63.1,171.2h4.1l.9,6.7c.2,1.4.3,2.8.5,4.3h.1c.2-1.5.4-2.9.7-4.3l.9-4.8h3.1l.9,4.8c.3,1.4.5,2.8.7,4.3h.1c.2-1.5.3-2.8.4-4.3l.8-6.7h4L78,185.6h-5l-.8-4.7c-.2-1.2-.4-2.6-.5-4.3h-.1c-.1,1.2-.3,2.5-.5,4.3l-.8,4.7h-4.9l-2.3-14.4Z"/><path d="M82.1,181.6c0-3.2,2.7-4.9,9.5-5.3-.1-1.3-1.1-2.1-3.1-2.1-1.4,0-2.8.5-4.4,1.3l-1.5-2.8c2-1.1,4.3-1.9,6.7-1.9c4,0,6.5,2.1,6.5,6.5v8.2h-3.5l-.3-1.6v0c-1.5,1.1-3.3,2-5.1,2-3,.1-4.8-1.8-4.8-4.3Zm9.5-.3v-2.4c-4.2.2-5.4,1.1-5.4,2.4c0,.9.8,1.4,2,1.4c1.3,0,2.4-.6,3.4-1.4Z"/><path d="M105.8,174.6h-5.8v-3.3h10.1v14.4h-4.3v-11.1Zm-.9-8.2c0-1.6,1.2-2.7,2.8-2.7s2.8,1.1,2.8,2.7-1.2,2.6-2.8,2.6-2.8-1.1-2.8-2.6Z"/><path d="M120.2,179.7v-5.1h-3.6v-3.2l3.8-.2.5-4.4h3.5v4.4h6.1v3.3h-6.1v5c0,2.2.9,3,3,3c1.1,0,2-.2,2.8-.5l.8,3.1c-1.3.4-2.8.8-4.7.8-4.5.1-6.1-2.5-6.1-6.2Z"/><path d="M151.9,183.8l1.3-1.9c1.7,1.1,3.6,1.9,6,1.9c2.2,0,3.2-.9,3.2-1.9s-.6-1.6-4.2-2.4c-3.7-.8-5.5-2.1-5.5-4.2c0-2.4,2.1-4.1,6.1-4.1c2.3,0,4.4.9,5.8,1.8l-1.4,1.8c-1.3-.9-3-1.5-4.7-1.5-2.1,0-2.9.8-2.9,1.8c0,1.1,1.1,1.5,3.9,2.1c4.6,1,5.8,2.2,5.8,4.4c0,2.4-2.3,4.3-6.5,4.3-2.7.1-5.2-.9-6.9-2.1Z" fill="#e4007f"/><path d="M169.9,171.5h2.4l.2,1.7h.1c1.3-1.2,3.1-2.1,4.7-2.1c3.7,0,5.8,2.8,5.8,7.2c0,4.8-3,7.6-6.4,7.6-1.3,0-2.8-.6-4-1.8h-.1l.1,2.6v4.6h-2.9v-19.8Zm10.3,6.8c0-3-1.1-4.8-3.6-4.8-1.2,0-2.5.6-3.7,1.9v6.7c1.2,1.1,2.5,1.5,3.4,1.5c2.1,0,3.9-1.9,3.9-5.3Z" fill="#e4007f"/><path d="M186.6,178.5c0-4.6,3.5-7.4,7.3-7.4c4.2,0,6.5,2.7,6.5,6.7c0,.6-.1,1.2-.1,1.6h-11.7v-2.1h9.9l-.6.7c0-3.1-1.5-4.6-3.9-4.6-2.5,0-4.5,1.8-4.5,5.2c0,3.5,2.2,5.2,5.2,5.2c1.6,0,2.9-.5,4.1-1.2l1,1.8c-1.5,1-3.3,1.7-5.5,1.7-4.3-.1-7.7-2.9-7.7-7.6Z" fill="#e4007f"/><path d="M204,178.5c0-4.6,3.5-7.4,7.3-7.4c4.2,0,6.5,2.7,6.5,6.7c0,.6-.1,1.2-.1,1.6h-11.7v-2.1h9.9l-.6.7c0-3.1-1.5-4.6-3.9-4.6-2.5,0-4.5,1.8-4.5,5.2c0,3.5,2.2,5.2,5.2,5.2c1.6,0,2.9-.5,4.1-1.2l1,1.8c-1.5,1-3.3,1.7-5.5,1.7-4.3-.1-7.7-2.9-7.7-7.6Z" fill="#e4007f"/><path d="M221.8,178.6c0-4.7,3.7-7.5,8-7.5c2.3,0,4,.9,5.2,2l-1.4,1.8c-1.1-.9-2.3-1.5-3.7-1.5-3,0-5.1,2-5.1,5.1c0,3,2.1,5,5.1,5c1.7,0,3.1-.8,4.2-1.7l1.2,1.9c-1.6,1.4-3.6,2.2-5.7,2.2-4.5.1-7.8-2.6-7.8-7.3Z" fill="#e4007f"/><path d="M239.5,165.1h2.9v5.5l-.2,3.2h.1c1.3-1.4,3-2.6,5.1-2.6c3.3,0,4.8,2,4.8,5.7v8.8h-2.9v-8.4c0-2.5-.8-3.6-2.9-3.6-1.5,0-2.6.8-4,2.3v9.8h-2.9v-20.7Z" fill="#e4007f"/><path d="M256.9,183.2h4.6v-14.1h-4.6v-2.5h12.2v2.5h-4.6v14.1h4.6v2.5h-12.2v-2.5Z" fill="#e4007f"/><path d="M274.3,171.5h2.4l.2,2.3h.1c1.4-1.5,3-2.6,5.2-2.6c3.3,0,4.8,2,4.8,5.7v8.8h-2.9v-8.4c0-2.5-.8-3.6-2.9-3.6-1.5,0-2.6.8-4,2.3v9.8h-2.9v-14.3Z" fill="#e4007f"/><path d="M295.2,183.3c0-1.6,1.1-2.7,2.6-2.7s2.6,1.1,2.6,2.7-1.1,2.7-2.6,2.7-2.6-1.1-2.6-2.7Z"/><path d="M310.2,166.6h2.9v16.5h9.1v2.5h-12v-19Z" fill="#036eb8"/><path d="M332.8,173.8h-6.3v-2.3h9.2v14.2h-2.9v-11.9Zm-.9-7.2c0-1.2.9-2.1,2.2-2.1c1.2,0,2.2.8,2.2,2.1c0,1.2-.9,2.1-2.2,2.1s-2.2-.8-2.2-2.1Z" fill="#036eb8"/><path d="M343.3,183.8l1.3-1.9c1.7,1.1,3.6,1.9,6,1.9c2.2,0,3.2-.9,3.2-1.9s-.6-1.6-4.2-2.4c-3.7-.8-5.5-2.1-5.5-4.2c0-2.4,2.1-4.1,6.1-4.1c2.3,0,4.4.9,5.8,1.8l-1.4,1.8c-1.3-.9-3-1.5-4.7-1.5-2.1,0-2.9.8-2.9,1.8c0,1.1,1.1,1.5,3.9,2.1c4.6,1,5.8,2.2,5.8,4.4c0,2.4-2.3,4.3-6.5,4.3-2.7.1-5.2-.9-6.9-2.1Z" fill="#036eb8"/><path d="M364.5,180v-6.3h-3.9v-2.2l4-.2.4-4.5h2.4v4.5h6.7v2.3h-6.7v6.3c0,2.4.9,3.6,3.4,3.6c1.2,0,2.3-.2,3.2-.6l.6,2.1c-1.3.4-2.7.8-4.5.8-4.2.2-5.6-2.2-5.6-5.8Z" fill="#036eb8"/><path d="M378,178.5c0-4.6,3.5-7.4,7.3-7.4c4.2,0,6.5,2.7,6.5,6.7c0,.6-.1,1.2-.1,1.6h-11.7v-2.1h9.9l-.6.7c0-3.1-1.5-4.6-3.9-4.6-2.5,0-4.5,1.8-4.5,5.2c0,3.5,2.2,5.2,5.2,5.2c1.6,0,2.9-.5,4.1-1.2l1,1.8c-1.5,1-3.3,1.7-5.5,1.7-4.3-.1-7.7-2.9-7.7-7.6Z" fill="#036eb8"/><path d="M396.1,171.5h2.4l.2,2.3h.1c1.4-1.5,3-2.6,5.2-2.6c3.3,0,4.8,2,4.8,5.7v8.8h-2.8v-8.4c0-2.5-.8-3.6-2.9-3.6-1.5,0-2.6.8-4,2.3v9.8h-2.9v-14.3Z" fill="#036eb8"/><path d="M416.8,177.6c0-5.6,2.4-10,6.4-13.2l1.6,1.4c-3.8,3.3-5.5,7-5.5,11.8s1.7,8.5,5.5,11.8l-1.6,1.4c-4-3.2-6.4-7.7-6.4-13.2Z"/><path d="M430.9,171.5h2.4l.2,2.3h.1c1.4-1.5,3-2.6,5.2-2.6c3.3,0,4.8,2,4.8,5.7v8.8h-2.9v-8.4c0-2.5-.8-3.6-2.9-3.6-1.5,0-2.6.8-4,2.3v9.8h-2.9v-14.3Z"/><path d="M447.6,178.5c0-4.6,3.5-7.4,7.3-7.4c4.2,0,6.5,2.7,6.5,6.7c0,.6-.1,1.2-.1,1.6h-11.7v-2.1h9.9l-.6.7c0-3.1-1.5-4.6-3.9-4.6-2.5,0-4.5,1.8-4.5,5.2c0,3.5,2.2,5.2,5.2,5.2c1.6,0,2.9-.5,4.1-1.2l1,1.8c-1.5,1-3.3,1.7-5.5,1.7-4.3-.1-7.7-2.9-7.7-7.6Z"/><path d="M463.3,171.5h2.8l1.5,7.8c.2,1.4.4,2.6.6,4h.1c.2-1.4.5-2.7.8-4l1.5-6.6h2.6l1.5,6.6c.3,1.4.7,2.6.8,4h.1c.2-1.4.3-2.6.6-4l1.5-7.8h2.7l-2.8,14.2h-3.6l-1.4-6.2c-.2-1.1-.4-2.4-.7-4.2h-.1c-.2,1.6-.4,3-.6,4.2l-1.4,6.2h-3.6l-2.9-14.2Z"/><path d="M499.9,183.8l1.3-1.9c1.7,1.1,3.6,1.9,6,1.9c2.2,0,3.2-.9,3.2-1.9s-.6-1.6-4.2-2.4c-3.7-.8-5.5-2.1-5.5-4.2c0-2.4,2.1-4.1,6.1-4.1c2.3,0,4.4.9,5.8,1.8l-1.4,1.8c-1.3-.9-3-1.5-4.7-1.5-2.1,0-2.9.8-2.9,1.8c0,1.1,1.1,1.5,3.9,2.1c4.6,1,5.8,2.2,5.8,4.4c0,2.4-2.3,4.3-6.5,4.3-2.7.1-5.2-.9-6.9-2.1Z"/><path d="M521.1,180v-6.3h-3.9v-2.2l4-.2.4-4.5h2.4v4.5h6.7v2.3h-6.7v6.3c0,2.4.9,3.6,3.4,3.6c1.2,0,2.3-.2,3.2-.6l.6,2.1c-1.3.4-2.7.8-4.5.8-4.2.2-5.6-2.2-5.6-5.8Z"/><path d="M536.7,171.5h2.4l.3,3.3h.1c1.5-2.3,3.6-3.6,6.2-3.6c1.1,0,1.9.2,2.8.6l-.6,2.5c-1-.3-1.5-.5-2.6-.5-2,0-4,1-5.6,3.9v8h-2.9v-14.2Z"/><path d="M559,173.8h-6.3v-2.3h9.2v14.2h-2.9v-11.9Zm-.9-7.2c0-1.2.9-2.1,2.2-2.1c1.2,0,2.2.8,2.2,2.1c0,1.2-.9,2.1-2.2,2.1s-2.2-.8-2.2-2.1Z"/><path d="M570.1,171.5h2.4l.2,2.3h.1c1.4-1.5,3-2.6,5.2-2.6c3.3,0,4.8,2,4.8,5.7v8.8h-2.8v-8.4c0-2.5-.8-3.6-2.9-3.6-1.5,0-2.6.8-4,2.3v9.8h-2.9v-14.3Z"/><path d="M586.9,188.2c0-1.1.8-2.2,2.3-3.1v-.1c-.8-.4-1.5-1.2-1.5-2.4c0-.9.6-1.9,1.7-2.7v-.1c-1-.7-1.8-2-1.8-3.7c0-3.2,2.6-5.1,5.7-5.1.8,0,1.5.1,2.2.3h5.8v2.3h-3.5c.6.6,1,1.6,1,2.6c0,3.1-2.5,4.8-5.6,4.8-.7,0-1.5-.2-2.3-.5-.6.4-1,.9-1,1.5c0,1,1,1.5,2.8,1.5h3c3.7,0,5.5,1,5.5,3.4c0,2.7-3.1,5-8,5-3.8.1-6.3-1.2-6.3-3.7Zm11.7-.7c0-1.2-1-1.6-3-1.6h-2.5c-.9,0-1.6-.1-2.2-.2-1.2.7-1.6,1.4-1.6,2.1c0,1.4,1.5,2.2,4.4,2.2c3,0,4.9-1.2,4.9-2.5Zm-2.3-11.3c0-1.9-1.3-3.1-3-3.1-1.6,0-3,1.2-3,3.1s1.3,3.1,3,3.1s3-1.2,3-3.1Z"/><path d="M608.7,165.1h8.2v1.6h-5.9v21.8h5.9v1.6h-8.2v-25Z"/><path d="M622.6,188.4h5.9v-21.8h-5.9v-1.6h8.2v25h-8.2v-1.6Z"/><path d="M661.8,186.1c0-2.1.3-3.5.3-5.4c0-1.1-.8-2.2-4.1-2.2v-1.8c3.3,0,4.1-1.1,4.1-2.2c0-1.8-.3-3.4-.3-5.4c0-3,1.7-3.9,5.4-3.9h1.9v1.6h-1.4c-2.8,0-3.4.7-3.4,2.5c0,1.6.2,3.3.2,5.1c0,2-.7,2.9-2.7,3.2v.1c2,.3,2.7,1.3,2.7,3.2s-.2,3.4-.2,5.1c0,1.8.6,2.5,3.4,2.5h1.4v1.6h-1.9c-3.7-.1-5.4-1-5.4-4Z"/><path d="M692.8,169.2l-.1-3.5h3.6l-.1,3.5-.8,6.6h-1.9l-.7-6.6Zm7,0l-.1-3.5h3.6l-.1,3.5-.8,6.6h-1.9l-.7-6.6Z"/><path d="M708.9,166.6h2.9v7.8h7.2v-7.8h2.9v19h-2.9v-8.6h-7.2v8.7h-2.9v-19.1Z"/><path d="M726,178.5c0-4.6,3.5-7.4,7.3-7.4c4.2,0,6.5,2.7,6.5,6.7c0,.6-.1,1.2-.1,1.6h-11.7v-2.1h9.9l-.6.7c0-3.1-1.5-4.6-3.9-4.6-2.5,0-4.5,1.8-4.5,5.2c0,3.5,2.2,5.2,5.2,5.2c1.6,0,2.9-.5,4.1-1.2l1,1.8c-1.5,1-3.3,1.7-5.5,1.7-4.3-.1-7.7-2.9-7.7-7.6Z"/><path d="M748.4,180.7v-13.3h-4.9v-2.3h7.8v15.8c0,2,1.1,2.8,2.7,2.8.8,0,1.6-.2,2.5-.6l.7,2.1c-1.4.5-2.3.8-3.9.8-3.2,0-4.9-1.9-4.9-5.3Z"/><path d="M765.8,180.7v-13.3h-4.9v-2.3h7.8v15.8c0,2,1.1,2.8,2.7,2.8.8,0,1.6-.2,2.5-.6l.7,2.1c-1.4.5-2.3.8-3.9.8-3.2,0-4.9-1.9-4.9-5.3Z"/><path d="M778,178.6c0-4.7,3.3-7.5,7.1-7.5s7.1,2.7,7.1,7.5c0,4.7-3.3,7.4-7.1,7.4s-7.1-2.7-7.1-7.4Zm11.1,0c0-3.1-1.6-5.1-4.1-5.1s-4.1,2-4.1,5.1c0,3,1.6,5,4.1,5s4.1-2,4.1-5Z"/><path d="M797.2,169.2l-.1-3.5h3.6l-.1,3.5-.8,6.6h-1.8l-.8-6.6Zm7,0l-.1-3.5h3.6l-.1,3.5-.8,6.6h-1.8l-.8-6.6Z"/><path d="M816.7,190.1c2.5-1.1,3.7-2.6,3.7-4.9l-.4-2.9l1.7,2.5c-.5.5-1.1.7-1.7.7-1.4,0-2.5-.8-2.5-2.4c0-1.5,1.2-2.4,2.6-2.4c1.9,0,2.9,1.5,2.9,4c0,3.5-2,5.9-5.4,7.1l-.9-1.7Z"/><path d="M849.4,169.2l-.1-3.5h3.6l-.1,3.5-.8,6.6h-1.9l-.7-6.6Zm7,0l-.1-3.5h3.6l-.1,3.5-.8,6.6h-1.9l-.7-6.6Z"/><path d="M865.5,166.6h2.9v7.8h7.2v-7.8h2.9v19h-2.9v-8.6h-7.2v8.7h-2.9v-19.1Z"/><path d="M882.6,178.5c0-4.6,3.5-7.4,7.3-7.4c4.2,0,6.5,2.7,6.5,6.7c0,.6-.1,1.2-.1,1.6h-11.7v-2.1h9.9l-.6.7c0-3.1-1.5-4.6-3.9-4.6-2.5,0-4.5,1.8-4.5,5.2c0,3.5,2.2,5.2,5.2,5.2c1.6,0,2.9-.5,4.1-1.2l1,1.8c-1.5,1-3.3,1.7-5.5,1.7-4.3-.1-7.7-2.9-7.7-7.6Z"/><path d="M900.1,191.3l.6-2.3c.4.1.8.2,1.2.2c1.9,0,3-1.1,3.6-2.7l.4-1-6.5-14.1h2.9l3.2,7.4c.5,1.3,1.1,2.7,1.7,4.1h.1c.5-1.4,1-2.8,1.5-4.1l2.8-7.4h2.8l-6.1,15.1c-1.1,3-2.8,5-6.2,5-.8.1-1.5,0-2-.2Z"/><path d="M919,169.2l-.1-3.5h3.6l-.1,3.5-.8,6.6h-1.9l-.7-6.6Zm7,0l-.1-3.5h3.6l-.1,3.5-.8,6.6h-1.9l-.7-6.6Z"/><path d="M953.3,188.4h1.4c2.8,0,3.4-.7,3.4-2.5c0-1.7-.2-3.2-.2-5.1c0-2,.7-2.9,2.7-3.2v-.1c-2-.3-2.7-1.3-2.7-3.2c0-1.8.2-3.5.2-5.1c0-1.8-.6-2.5-3.4-2.5h-1.4v-1.6h1.9c3.7,0,5.4.9,5.4,3.9c0,2-.3,3.6-.3,5.4c0,1.1.8,2.2,4.2,2.2v1.8c-3.4,0-4.2,1.1-4.2,2.2c0,1.9.3,3.3.3,5.4c0,3-1.7,3.9-5.4,3.9h-1.9v-1.5Z"/><path d="M971.3,189.4c3.8-3.3,5.5-7,5.5-11.8s-1.7-8.5-5.5-11.8l1.6-1.4c4,3.2,6.4,7.6,6.4,13.2s-2.4,10-6.4,13.2l-1.6-1.4Z"/><path d="M990.7,190.1c2.5-1.1,3.7-2.6,3.7-4.9l-.4-2.9l1.7,2.5c-.5.5-1.1.7-1.7.7-1.4,0-2.5-.8-2.5-2.4c0-1.5,1.2-2.4,2.6-2.4c1.9,0,2.9,1.5,2.9,4c0,3.5-2,5.9-5.4,7.1l-.9-1.7Zm.5-17c0-1.6,1.1-2.7,2.6-2.7s2.6,1.1,2.6,2.7-1.1,2.7-2.6,2.7-2.6-1.1-2.6-2.7Z"/></g><g id="ew8Svf1dVbG85" transform="translate(-1.700001 20)" opacity="0"><path d="M47.3,258c0-3.2,2.7-4.9,9.5-5.3-.1-1.3-1.1-2.1-3.1-2.1-1.4,0-2.8.5-4.4,1.3l-1.5-2.8c2-1.1,4.3-1.9,6.7-1.9c4,0,6.5,2.1,6.5,6.5v8.2h-3.5l-.3-1.6h-.1c-1.5,1.1-3.3,2-5.1,2-2.9,0-4.7-1.9-4.7-4.3Zm9.5-.4v-2.4c-4.2.2-5.4,1.1-5.4,2.4c0,.9.8,1.4,2,1.4c1.3,0,2.4-.6,3.4-1.4Z"/><path d="M63.1,247.6h4.1l.9,6.7c.2,1.4.3,2.8.5,4.3h.1c.2-1.5.4-2.9.7-4.3l.9-4.8h3.1l.9,4.8c.3,1.4.5,2.8.7,4.3h.1c.2-1.5.3-2.8.4-4.3l.8-6.7h4L78,262h-5l-.8-4.7c-.2-1.2-.4-2.6-.5-4.3h-.1c-.1,1.2-.3,2.5-.5,4.3l-.8,4.7h-4.9l-2.3-14.4Z"/><path d="M82.1,258c0-3.2,2.7-4.9,9.5-5.3-.1-1.3-1.1-2.1-3.1-2.1-1.4,0-2.8.5-4.4,1.3l-1.5-2.8c2-1.1,4.3-1.9,6.7-1.9c4,0,6.5,2.1,6.5,6.5v8.2h-3.5l-.3-1.6v0c-1.5,1.1-3.3,2-5.1,2-3,0-4.8-1.9-4.8-4.3Zm9.5-.4v-2.4c-4.2.2-5.4,1.1-5.4,2.4c0,.9.8,1.4,2,1.4c1.3,0,2.4-.6,3.4-1.4Z"/><path d="M105.8,250.9h-5.8v-3.3h10.1v14.4h-4.3v-11.1Zm-.9-8.2c0-1.6,1.2-2.7,2.8-2.7s2.8,1.1,2.8,2.7-1.2,2.6-2.8,2.6-2.8-1-2.8-2.6Z"/><path d="M120.2,256v-5.1h-3.6v-3.2l3.8-.2.5-4.4h3.5v4.4h6.1v3.3h-6.1v5c0,2.2.9,3,3,3c1.1,0,2-.2,2.8-.5l.8,3.1c-1.3.4-2.8.8-4.7.8-4.5.1-6.1-2.4-6.1-6.2Z"/><path d="M151.9,260.1l1.3-1.9c1.7,1.1,3.6,1.9,6,1.9c2.2,0,3.2-.9,3.2-1.9s-.6-1.6-4.2-2.4c-3.7-.8-5.5-2.1-5.5-4.2c0-2.4,2.1-4.1,6.1-4.1c2.3,0,4.4.9,5.8,1.8l-1.4,1.8c-1.3-.9-3-1.5-4.7-1.5-2.1,0-2.9.8-2.9,1.8c0,1.1,1.1,1.5,3.9,2.1c4.6,1,5.8,2.2,5.8,4.4c0,2.4-2.3,4.3-6.5,4.3-2.7.1-5.2-.9-6.9-2.1Z" fill="#e4007f"/><path d="M169.9,247.8h2.4l.2,1.7h.1c1.3-1.2,3.1-2.1,4.7-2.1c3.7,0,5.8,2.8,5.8,7.2c0,4.8-3,7.6-6.4,7.6-1.3,0-2.8-.6-4-1.8h-.1l.1,2.6v4.6h-2.9v-19.8Zm10.3,6.9c0-3-1.1-4.8-3.6-4.8-1.2,0-2.5.6-3.7,1.9v6.7c1.2,1.1,2.5,1.5,3.4,1.5c2.1-.1,3.9-2,3.9-5.3Z" fill="#e4007f"/><path d="M186.6,254.8c0-4.6,3.5-7.4,7.3-7.4c4.2,0,6.5,2.7,6.5,6.7c0,.6-.1,1.2-.1,1.6h-11.7v-2.1h9.9l-.6.7c0-3.1-1.5-4.6-3.9-4.6-2.5,0-4.5,1.8-4.5,5.2c0,3.5,2.2,5.2,5.2,5.2c1.6,0,2.9-.5,4.1-1.2l1,1.8c-1.5,1-3.3,1.7-5.5,1.7-4.3-.1-7.7-2.8-7.7-7.6Z" fill="#e4007f"/><path d="M204,254.8c0-4.6,3.5-7.4,7.3-7.4c4.2,0,6.5,2.7,6.5,6.7c0,.6-.1,1.2-.1,1.6h-11.7v-2.1h9.9l-.6.7c0-3.1-1.5-4.6-3.9-4.6-2.5,0-4.5,1.8-4.5,5.2c0,3.5,2.2,5.2,5.2,5.2c1.6,0,2.9-.5,4.1-1.2l1,1.8c-1.5,1-3.3,1.7-5.5,1.7-4.3-.1-7.7-2.8-7.7-7.6Z" fill="#e4007f"/><path d="M221.8,254.9c0-4.7,3.7-7.5,8-7.5c2.3,0,4,.9,5.2,2l-1.4,1.8c-1.1-.9-2.3-1.5-3.7-1.5-3,0-5.1,2-5.1,5.1c0,3,2.1,5,5.1,5c1.7,0,3.1-.8,4.2-1.7l1.2,1.9c-1.6,1.4-3.6,2.2-5.7,2.2-4.5.1-7.8-2.6-7.8-7.3Z" fill="#e4007f"/><path d="M239.5,241.4h2.9v5.5l-.2,3.2h.1c1.3-1.4,3-2.6,5.1-2.6c3.3,0,4.8,2,4.8,5.7v8.8h-2.9v-8.4c0-2.5-.8-3.6-2.9-3.6-1.5,0-2.6.8-4,2.3v9.8h-2.9v-20.7Z" fill="#e4007f"/><path d="M255.7,252.4c0-6.2,3-9.8,7.4-9.8c4.3,0,7.4,3.6,7.4,9.8c0,6.3-3,9.9-7.4,9.9s-7.4-3.6-7.4-9.9Zm11.7,0c0-4.6-1.7-7.2-4.4-7.2s-4.4,2.6-4.4,7.2c0,4.7,1.7,7.4,4.4,7.4s4.4-2.8,4.4-7.4Z" fill="#e4007f"/><path d="M273.9,256.6v-8.8h2.9v8.4c0,2.5.8,3.6,3,3.6c1.5,0,2.6-.7,4-2.3v-9.7h2.9v14.2h-2.4l-.2-2.4h-.1c-1.4,1.6-3,2.7-5.1,2.7-3.5,0-5-2-5-5.7Z" fill="#e4007f"/><path d="M294.9,256.3v-6.3h-3.9v-2.2l4-.2.4-4.5h2.4v4.5h6.7v2.3h-6.7v6.3c0,2.4.9,3.6,3.4,3.6c1.2,0,2.3-.2,3.2-.6l.6,2.1c-1.3.4-2.7.8-4.5.8-4.2.2-5.6-2.2-5.6-5.8Z" fill="#e4007f"/><path d="M312.6,259.6c0-1.6,1.1-2.7,2.6-2.7s2.6,1.1,2.6,2.7-1.1,2.7-2.6,2.7-2.6-1.1-2.6-2.7Z"/><path d="M325.8,259.5l1.7-2c1.4,1.4,3.4,2.3,5.4,2.3c2.4,0,3.7-1.1,3.7-2.6c0-1.9-1.4-2.4-3.3-3.2l-2.7-1.2c-1.9-.8-4.1-2.2-4.1-5c0-3,2.7-5.2,6.4-5.2c2.4,0,4.5.9,6,2.4l-1.5,1.9c-1.3-1.1-2.6-1.7-4.6-1.7s-3.3.9-3.3,2.5s1.6,2.3,3.3,2.9l2.6,1.1c2.4.9,4.2,2.3,4.2,5.1c0,3-2.6,5.5-6.9,5.5-2.7,0-5.1-1.1-6.9-2.8Z" fill="#036eb8"/><path d="M343.9,247.8h2.4l.2,1.7h.1c1.3-1.2,3.1-2.1,4.7-2.1c3.7,0,5.8,2.8,5.8,7.2c0,4.8-3,7.6-6.4,7.6-1.3,0-2.8-.6-4-1.8h-.1l.1,2.6v4.6h-2.9v-19.8Zm10.3,6.9c0-3-1.1-4.8-3.6-4.8-1.2,0-2.5.6-3.7,1.9v6.7c1.2,1.1,2.5,1.5,3.4,1.5c2.1-.1,3.9-2,3.9-5.3Z" fill="#036eb8"/><path d="M360.6,254.8c0-4.6,3.5-7.4,7.3-7.4c4.2,0,6.5,2.7,6.5,6.7c0,.6-.1,1.2-.1,1.6h-11.7v-2.1h9.9l-.6.7c0-3.1-1.5-4.6-3.9-4.6-2.5,0-4.5,1.8-4.5,5.2c0,3.5,2.2,5.2,5.2,5.2c1.6,0,2.9-.5,4.1-1.2l1,1.8c-1.5,1-3.3,1.7-5.5,1.7-4.3-.1-7.7-2.8-7.7-7.6Z" fill="#036eb8"/><path d="M378.3,258.2c0-3.2,2.9-4.7,10-5.3-.1-1.8-1-3.2-3.6-3.2-1.7,0-3.4.8-4.8,1.6l-1.1-1.9c1.6-1,3.9-2,6.4-2c3.9,0,5.9,2.2,5.9,6v8.5h-2.4l-.2-1.8h-.1c-1.5,1.2-3.5,2.2-5.4,2.2-2.6,0-4.7-1.6-4.7-4.1Zm10.1-.1v-3.3c-5.6.4-7.2,1.5-7.2,3.2c0,1.4,1.3,2,2.8,2s2.9-.7,4.4-1.9Z" fill="#036eb8"/><path d="M396.4,241.4h2.9v13.4h.1l7-7h3.2l-10.3,10.4v3.8h-2.9v-20.6Zm5.5,13.3l1.7-1.8l6.6,9.1h-3.2l-5.1-7.3Z" fill="#036eb8"/><path d="M416.8,253.9c0-5.6,2.4-10,6.4-13.2l1.6,1.4c-3.8,3.3-5.5,7-5.5,11.8s1.7,8.5,5.5,11.8l-1.6,1.4c-4-3.2-6.4-7.7-6.4-13.2Z"/><path d="M431.8,245.5l-.1-3.5h3.6l-.1,3.5-.8,6.6h-1.9l-.7-6.6Zm7,0l-.1-3.5h3.6l-.1,3.5-.8,6.6h-1.9l-.7-6.6Z"/><path d="M447.9,243h2.9v7.8h7.2v-7.8h2.9v19h-2.9v-8.7h-7.2v8.7h-2.9v-19Z"/><path d="M464.8,254.9c0-4.7,3.3-7.5,7.1-7.5s7.1,2.7,7.1,7.5c0,4.7-3.3,7.4-7.1,7.4s-7.1-2.7-7.1-7.4Zm11.1,0c0-3.1-1.6-5.1-4.1-5.1s-4.1,2-4.1,5.1c0,3,1.6,5,4.1,5s4.1-2,4.1-5Z"/><path d="M480.7,247.8h2.8l1.5,7.8c.2,1.4.4,2.6.6,4h.1c.2-1.4.5-2.7.8-4L488,249h2.6l1.5,6.6c.3,1.4.7,2.6.8,4h.1c.2-1.4.3-2.6.6-4l1.5-7.8h2.7L495,262h-3.6l-1.4-6.2c-.2-1.1-.4-2.4-.7-4.2h-.1c-.2,1.6-.4,3-.6,4.2l-1.4,6.2h-3.6l-2.9-14.2Z"/><path d="M504.1,250.7c2-1.1,3.1-2.7,3.1-4.9l-.5-2.4l1.6,2.1c-.5.5-1.2.9-1.9.9-1.3,0-2.2-.9-2.2-2.2c0-1.4,1-2.4,2.3-2.4c1.7,0,2.8,1.4,2.8,3.8c0,3-1.6,5.4-4.4,6.8l-.8-1.7Z"/><path d="M517.3,260.1l1.3-1.9c1.7,1.1,3.6,1.9,6,1.9c2.2,0,3.2-.9,3.2-1.9s-.6-1.6-4.2-2.4c-3.7-.8-5.5-2.1-5.5-4.2c0-2.4,2.1-4.1,6.1-4.1c2.3,0,4.4.9,5.8,1.8l-1.4,1.8c-1.3-.9-3-1.5-4.7-1.5-2.1,0-2.9.8-2.9,1.8c0,1.1,1.1,1.5,3.9,2.1c4.6,1,5.8,2.2,5.8,4.4c0,2.4-2.3,4.3-6.5,4.3-2.7.1-5.2-.9-6.9-2.1Z"/><path d="M552.1,264.5c0-1.1.8-2.2,2.3-3.1v-.1c-.8-.4-1.5-1.2-1.5-2.4c0-.9.6-1.9,1.7-2.7v-.1c-1-.7-1.8-2-1.8-3.7c0-3.2,2.6-5.1,5.7-5.1.8,0,1.5.1,2.2.3h5.8v2.3h-3.5c.6.6,1,1.6,1,2.6c0,3.1-2.5,4.8-5.6,4.8-.7,0-1.5-.2-2.3-.5-.6.4-1,.9-1,1.5c0,1,1,1.5,2.8,1.5h3c3.7,0,5.5,1,5.5,3.4c0,2.7-3.1,5-8,5-3.8.2-6.3-1.2-6.3-3.7Zm11.7-.7c0-1.2-1-1.6-3-1.6h-2.5c-.9,0-1.6-.1-2.2-.2-1.2.7-1.6,1.4-1.6,2.1c0,1.4,1.5,2.2,4.4,2.2c3,.1,4.9-1.1,4.9-2.5Zm-2.3-11.3c0-1.9-1.3-3.1-3-3.1-1.6,0-3,1.2-3,3.1s1.3,3.1,3,3.1s3-1.2,3-3.1Z"/><path d="M569.2,254.9c0-4.7,3.3-7.5,7.1-7.5s7.1,2.7,7.1,7.5c0,4.7-3.3,7.4-7.1,7.4s-7.1-2.7-7.1-7.4Zm11.1,0c0-3.1-1.6-5.1-4.1-5.1s-4.1,2-4.1,5.1c0,3,1.6,5,4.1,5s4.1-2,4.1-5Z"/><path d="M593.8,250.1h-6.3v-2.3h9.2v14.2h-2.9v-11.9Zm-.9-7.1c0-1.2.9-2.1,2.2-2.1c1.2,0,2.2.8,2.2,2.1c0,1.2-.9,2.1-2.2,2.1-1.3-.1-2.2-.9-2.2-2.1Z"/><path d="M604.9,247.8h2.4l.2,2.3h.1c1.4-1.5,3-2.6,5.2-2.6c3.3,0,4.8,2,4.8,5.7v8.8h-2.9v-8.4c0-2.5-.8-3.6-2.9-3.6-1.5,0-2.6.8-4,2.3v9.8h-2.9v-14.3Z"/><path d="M621.7,264.5c0-1.1.8-2.2,2.3-3.1v-.1c-.8-.4-1.5-1.2-1.5-2.4c0-.9.6-1.9,1.7-2.7v-.1c-1-.7-1.8-2-1.8-3.7c0-3.2,2.6-5.1,5.7-5.1.8,0,1.5.1,2.2.3h5.8v2.3h-3.5c.6.6,1,1.6,1,2.6c0,3.1-2.5,4.8-5.6,4.8-.7,0-1.5-.2-2.3-.5-.6.4-1,.9-1,1.5c0,1,1,1.5,2.8,1.5h3c3.7,0,5.5,1,5.5,3.4c0,2.7-3.1,5-8,5-3.8.2-6.3-1.2-6.3-3.7Zm11.7-.7c0-1.2-1-1.6-3-1.6h-2.5c-.9,0-1.6-.1-2.2-.2-1.2.7-1.6,1.4-1.6,2.1c0,1.4,1.5,2.2,4.4,2.2c3,.1,4.9-1.1,4.9-2.5Zm-2.3-11.3c0-1.9-1.3-3.1-3-3.1-1.6,0-3,1.2-3,3.1s1.3,3.1,3,3.1s3-1.2,3-3.1Z"/><path d="M648.4,247.1c0-1.5-1.1-2.5-2.9-2.5-1.4,0-2.6.6-3.6,1.6l-1.7-1.5c1.3-1.4,3.2-2.4,5.4-2.4c3.2,0,5.5,1.7,5.5,4.6c0,3.9-5.1,4.6-4.7,8.3h-2.4c-.7-4.2,4.4-5.4,4.4-8.1Zm-5.3,12.8c0-1.5,1.1-2.4,2.3-2.4s2.3.9,2.3,2.4-1.1,2.4-2.3,2.4-2.3-1-2.3-2.4Z"/><path d="M658,245.5v-3.5h3.6l-.1,3.5-.8,6.6h-1.9l-.8-6.6Zm7,0l-.1-3.5h3.6l-.1,3.5-.8,6.6h-1.9l-.7-6.6Z"/><path d="M675.5,265.7c3.8-3.3,5.5-7,5.5-11.8s-1.7-8.5-5.5-11.8l1.6-1.4c4,3.2,6.4,7.6,6.4,13.2s-2.4,10-6.4,13.2l-1.6-1.4Z"/><path d="M694.9,266.4c2.5-1.1,3.7-2.6,3.7-4.9l-.4-2.9l1.7,2.5c-.5.5-1.1.7-1.7.7-1.4,0-2.5-.8-2.5-2.4c0-1.5,1.2-2.4,2.6-2.4c1.9,0,2.9,1.5,2.9,4c0,3.5-2,5.9-5.4,7.1l-.9-1.7Zm.5-16.9c0-1.6,1.1-2.7,2.6-2.7s2.6,1.1,2.6,2.7-1.1,2.7-2.6,2.7-2.6-1.1-2.6-2.7Z"/></g><g id="ew8Svf1dVbG122" transform="translate(-1.900002 30)" opacity="0"><path d="M47.5,318.9c0-3.2,2.7-4.9,9.5-5.3-.1-1.3-1.1-2.1-3.1-2.1-1.4,0-2.8.5-4.4,1.3L48,310c2-1.1,4.3-1.9,6.7-1.9c4,0,6.5,2.1,6.5,6.5v8.2h-3.5l-.3-1.6h-.1c-1.5,1.1-3.3,2-5.1,2-2.8.1-4.7-1.8-4.7-4.3Zm9.5-.3v-2.4c-4.2.2-5.4,1.1-5.4,2.4c0,.9.8,1.4,2,1.4c1.3,0,2.4-.6,3.4-1.4Z"/><path d="M63.3,308.5h4.1l.9,6.7c.2,1.4.3,2.8.5,4.3h.1c.2-1.5.4-2.9.7-4.3l.9-4.8h3.1l.9,4.8c.3,1.4.5,2.8.7,4.3h.1c.2-1.5.3-2.8.4-4.3l.8-6.7h4l-2.2,14.4h-5l-.8-4.7c-.2-1.2-.4-2.6-.5-4.3h-.1c-.1,1.2-.3,2.5-.5,4.3l-.8,4.7h-4.9l-2.4-14.4Z"/><path d="M82.3,318.9c0-3.2,2.7-4.9,9.5-5.3-.1-1.3-1.1-2.1-3.1-2.1-1.4,0-2.8.5-4.4,1.3L82.8,310c2-1.1,4.3-1.9,6.7-1.9c4,0,6.5,2.1,6.5,6.5v8.2h-3.5l-.3-1.6h-.1c-1.5,1.1-3.3,2-5.1,2-2.8.1-4.7-1.8-4.7-4.3Zm9.5-.3v-2.4c-4.2.2-5.4,1.1-5.4,2.4c0,.9.8,1.4,2,1.4c1.3,0,2.4-.6,3.4-1.4Z"/><path d="M106,311.9h-5.8v-3.3h10.1v14.4h-4.3v-11.1Zm-.9-8.2c0-1.6,1.2-2.7,2.8-2.7s2.8,1.1,2.8,2.7-1.2,2.6-2.8,2.6-2.8-1.1-2.8-2.6Z"/><path d="M120.4,317v-5.1h-3.6v-3.2l3.8-.2.5-4.4h3.5v4.4h6.1v3.3h-6.1v5c0,2.2.9,3,3,3c1.1,0,2-.2,2.8-.5l.8,3.1c-1.3.4-2.8.8-4.7.8-4.5.1-6.1-2.5-6.1-6.2Z"/><path d="M152.1,321.1l1.3-1.9c1.7,1.1,3.6,1.9,6,1.9c2.2,0,3.2-.9,3.2-1.9s-.6-1.6-4.2-2.4c-3.7-.8-5.5-2.1-5.5-4.2c0-2.4,2.1-4.1,6.1-4.1c2.3,0,4.4.9,5.8,1.8l-1.4,1.8c-1.3-.9-3-1.5-4.7-1.5-2.1,0-2.9.8-2.9,1.8c0,1.1,1.1,1.5,3.9,2.1c4.6,1,5.8,2.2,5.8,4.4c0,2.4-2.3,4.3-6.5,4.3-2.7.1-5.2-.9-6.9-2.1Z" fill="#e4007f"/><path d="M170.1,308.8h2.4l.2,1.7h.1c1.3-1.2,3.1-2.1,4.7-2.1c3.7,0,5.8,2.8,5.8,7.2c0,4.8-3,7.6-6.4,7.6-1.3,0-2.8-.6-4-1.8h-.1l.1,2.6v4.6h-2.9v-19.8Zm10.3,6.8c0-3-1.1-4.8-3.6-4.8-1.2,0-2.5.6-3.7,1.9v6.7c1.2,1.1,2.5,1.5,3.4,1.5c2.2,0,3.9-1.9,3.9-5.3Z" fill="#e4007f"/><path d="M186.8,315.8c0-4.6,3.5-7.4,7.3-7.4c4.2,0,6.5,2.7,6.5,6.7c0,.6-.1,1.2-.1,1.6h-11.7v-2.1h9.9l-.6.7c0-3.1-1.5-4.6-3.9-4.6-2.5,0-4.5,1.8-4.5,5.2c0,3.5,2.2,5.2,5.2,5.2c1.6,0,2.9-.5,4.1-1.2l1,1.8c-1.5,1-3.3,1.7-5.5,1.7-4.3-.1-7.7-2.9-7.7-7.6Z" fill="#e4007f"/><path d="M204.2,315.8c0-4.6,3.5-7.4,7.3-7.4c4.2,0,6.5,2.7,6.5,6.7c0,.6-.1,1.2-.1,1.6h-11.7v-2.1h9.9l-.6.7c0-3.1-1.5-4.6-3.9-4.6-2.5,0-4.5,1.8-4.5,5.2c0,3.5,2.2,5.2,5.2,5.2c1.6,0,2.9-.5,4.1-1.2l1,1.8c-1.5,1-3.3,1.7-5.5,1.7-4.3-.1-7.7-2.9-7.7-7.6Z" fill="#e4007f"/><path d="M222,315.9c0-4.7,3.7-7.5,8-7.5c2.3,0,4,.9,5.2,2l-1.4,1.8c-1.1-.9-2.3-1.5-3.7-1.5-3,0-5.1,2-5.1,5.1c0,3,2.1,5,5.1,5c1.7,0,3.1-.8,4.2-1.7l1.2,1.9c-1.6,1.4-3.6,2.2-5.7,2.2-4.5.1-7.8-2.6-7.8-7.3Z" fill="#e4007f"/><path d="M239.7,302.4h2.9v5.5l-.2,3.2h.1c1.3-1.4,3-2.6,5.1-2.6c3.3,0,4.8,2,4.8,5.7v8.8h-2.9v-8.4c0-2.5-.8-3.6-2.9-3.6-1.5,0-2.6.8-4,2.3v9.8h-2.9v-20.7Z" fill="#e4007f"/><path d="M257.2,320.5h4.6v-14.1h-4.6v-2.5h12.2v2.5h-4.6v14.1h4.6v2.5h-12.2v-2.5Z" fill="#e4007f"/><path d="M274.5,308.8h2.4l.2,2.3h.1c1.4-1.5,3-2.6,5.2-2.6c3.3,0,4.8,2,4.8,5.7v8.8h-2.9v-8.4c0-2.5-.8-3.6-2.9-3.6-1.5,0-2.6.8-4,2.3v9.8h-2.9v-14.3Z" fill="#e4007f"/><path d="M295.4,320.6c0-1.6,1.1-2.7,2.6-2.7s2.6,1.1,2.6,2.7-1.1,2.7-2.6,2.7-2.6-1.1-2.6-2.7Z"/><path d="M310.4,303.9h2.9v16.5h9.1v2.5h-12v-19Z" fill="#036eb8"/><path d="M333,311.1h-6.3v-2.3h9.2v14.2h-2.9v-11.9Zm-.9-7.2c0-1.2.9-2.1,2.2-2.1c1.2,0,2.2.8,2.2,2.1c0,1.2-.9,2.1-2.2,2.1s-2.2-.8-2.2-2.1Z" fill="#036eb8"/><path d="M343.5,321.1l1.3-1.9c1.7,1.1,3.6,1.9,6,1.9c2.2,0,3.2-.9,3.2-1.9s-.6-1.6-4.2-2.4c-3.7-.8-5.5-2.1-5.5-4.2c0-2.4,2.1-4.1,6.1-4.1c2.3,0,4.4.9,5.8,1.8l-1.4,1.8c-1.3-.9-3-1.5-4.7-1.5-2.1,0-2.9.8-2.9,1.8c0,1.1,1.1,1.5,3.9,2.1c4.6,1,5.8,2.2,5.8,4.4c0,2.4-2.3,4.3-6.5,4.3-2.7.1-5.2-.9-6.9-2.1Z" fill="#036eb8"/><path d="M364.7,317.3v-6.3h-3.9v-2.2l4-.2.4-4.5h2.4v4.5h6.7v2.3h-6.7v6.3c0,2.4.9,3.6,3.4,3.6c1.2,0,2.3-.2,3.2-.6l.6,2.1c-1.3.4-2.7.8-4.5.8-4.2.2-5.6-2.2-5.6-5.8Z" fill="#036eb8"/><path d="M378.2,315.8c0-4.6,3.5-7.4,7.3-7.4c4.2,0,6.5,2.7,6.5,6.7c0,.6-.1,1.2-.1,1.6h-11.7v-2.1h9.9l-.6.7c0-3.1-1.5-4.6-3.9-4.6-2.5,0-4.5,1.8-4.5,5.2c0,3.5,2.2,5.2,5.2,5.2c1.6,0,2.9-.5,4.1-1.2l1,1.8c-1.5,1-3.3,1.7-5.5,1.7-4.3-.1-7.7-2.9-7.7-7.6Z" fill="#036eb8"/><path d="M396.3,308.8h2.4l.2,2.3h.1c1.4-1.5,3-2.6,5.2-2.6c3.3,0,4.8,2,4.8,5.7v8.8h-2.9v-8.4c0-2.5-.8-3.6-2.9-3.6-1.5,0-2.6.8-4,2.3v9.8h-2.9v-14.3Z" fill="#036eb8"/><path d="M417,314.9c0-5.6,2.4-10,6.4-13.2l1.6,1.4c-3.8,3.3-5.5,7-5.5,11.8s1.7,8.5,5.5,11.8l-1.6,1.4c-4-3.2-6.4-7.7-6.4-13.2Z"/><path d="M431.1,308.8h2.4l.2,2.3h.1c1.4-1.5,3-2.6,5.2-2.6c3.3,0,4.8,2,4.8,5.7v8.8h-2.8v-8.4c0-2.5-.8-3.6-2.9-3.6-1.5,0-2.6.8-4,2.3v9.8h-2.9v-14.3Z"/><path d="M447.8,315.8c0-4.6,3.5-7.4,7.3-7.4c4.2,0,6.5,2.7,6.5,6.7c0,.6-.1,1.2-.1,1.6h-11.7v-2.1h9.9l-.6.7c0-3.1-1.5-4.6-3.9-4.6-2.5,0-4.5,1.8-4.5,5.2c0,3.5,2.2,5.2,5.2,5.2c1.6,0,2.9-.5,4.1-1.2l1,1.8c-1.5,1-3.3,1.7-5.5,1.7-4.3-.1-7.7-2.9-7.7-7.6Z"/><path d="M463.5,308.8h2.8l1.5,7.8c.2,1.4.4,2.6.6,4h.1c.2-1.4.5-2.7.8-4l1.5-6.6h2.6l1.5,6.6c.3,1.4.7,2.6.8,4h.1c.2-1.4.3-2.6.6-4l1.5-7.8h2.7L477.8,323h-3.6l-1.4-6.2c-.2-1.1-.4-2.4-.7-4.2h-.1c-.2,1.6-.4,3-.6,4.2L470,323h-3.6l-2.9-14.2Z"/><path d="M500.1,321.1l1.3-1.9c1.7,1.1,3.6,1.9,6,1.9c2.2,0,3.2-.9,3.2-1.9s-.6-1.6-4.2-2.4c-3.7-.8-5.5-2.1-5.5-4.2c0-2.4,2.1-4.1,6.1-4.1c2.3,0,4.4.9,5.8,1.8l-1.4,1.8c-1.3-.9-3-1.5-4.7-1.5-2.1,0-2.9.8-2.9,1.8c0,1.1,1.1,1.5,3.9,2.1c4.6,1,5.8,2.2,5.8,4.4c0,2.4-2.3,4.3-6.5,4.3-2.7.1-5.2-.9-6.9-2.1Z"/><path d="M521.3,317.3v-6.3h-3.9v-2.2l4-.2.4-4.5h2.4v4.5h6.7v2.3h-6.7v6.3c0,2.4.9,3.6,3.4,3.6c1.2,0,2.3-.2,3.2-.6l.6,2.1c-1.3.4-2.7.8-4.5.8-4.2.2-5.6-2.2-5.6-5.8Z"/><path d="M536.9,308.8h2.4l.3,3.3h.1c1.5-2.3,3.6-3.6,6.2-3.6c1.1,0,1.9.2,2.8.6l-.6,2.5c-1-.3-1.5-.5-2.6-.5-2,0-4,1-5.6,3.9v8h-2.9v-14.2Z"/><path d="M559.2,311.1h-6.3v-2.3h9.2v14.2h-2.9v-11.9Zm-.9-7.2c0-1.2.9-2.1,2.2-2.1c1.2,0,2.2.8,2.2,2.1c0,1.2-.9,2.1-2.2,2.1s-2.2-.8-2.2-2.1Z"/><path d="M570.3,308.8h2.4l.2,2.3h.1c1.4-1.5,3-2.6,5.2-2.6c3.3,0,4.8,2,4.8,5.7v8.8h-2.9v-8.4c0-2.5-.8-3.6-2.9-3.6-1.5,0-2.6.8-4,2.3v9.8h-2.9v-14.3Z"/><path d="M587.1,325.5c0-1.1.8-2.2,2.3-3.1v-.1c-.8-.4-1.5-1.2-1.5-2.4c0-.9.6-1.9,1.7-2.7v-.1c-1-.7-1.8-2-1.8-3.7c0-3.2,2.6-5.1,5.7-5.1.8,0,1.5.1,2.2.3h5.8v2.3h-3.5c.6.6,1,1.6,1,2.6c0,3.1-2.5,4.8-5.6,4.8-.7,0-1.5-.2-2.3-.5-.6.4-1,.9-1,1.5c0,1,1,1.5,2.8,1.5h3c3.7,0,5.5,1,5.5,3.4c0,2.7-3.1,5-8,5-3.8.1-6.3-1.2-6.3-3.7Zm11.7-.7c0-1.2-1-1.6-3-1.6h-2.5c-.9,0-1.6-.1-2.2-.2-1.2.7-1.6,1.4-1.6,2.1c0,1.4,1.5,2.2,4.4,2.2c3,0,4.9-1.2,4.9-2.5Zm-2.3-11.3c0-1.9-1.3-3.1-3-3.1-1.6,0-3,1.2-3,3.1s1.3,3.1,3,3.1s3-1.2,3-3.1Z"/><path d="M608.9,302.4h8.2v1.6h-5.9v21.8h5.9v1.6h-8.2v-25Z"/><path d="M622.8,325.7h5.9v-21.7h-5.9v-1.6h8.2v24.9h-8.2v-1.6Z"/><path d="M662,323.4c0-2.1.3-3.5.3-5.4c0-1.1-.8-2.2-4.1-2.2v-1.8c3.3,0,4.1-1.1,4.1-2.2c0-1.8-.3-3.4-.3-5.4c0-3,1.7-3.9,5.4-3.9h1.9v1.6h-1.4c-2.8,0-3.4.7-3.4,2.5c0,1.6.2,3.3.2,5.1c0,2-.7,2.9-2.7,3.2v.1c2,.3,2.7,1.3,2.7,3.2s-.2,3.4-.2,5.1c0,1.8.6,2.5,3.4,2.5h1.4v1.6h-1.9c-3.7-.1-5.4-1-5.4-4Z"/><path d="M693,306.5v-3.5h3.6l-.1,3.5-.8,6.6h-1.9l-.8-6.6Zm7,0l-.1-3.5h3.6l-.1,3.5-.8,6.6h-1.9l-.7-6.6Z"/><path d="M709.5,320.5h4.6v-14.1h-4.6v-2.5h12.2v2.5h-4.6v14.1h4.6v2.5h-12.2v-2.5Z"/><path d="M731.3,306.5l-.1-3.5h3.6l-.1,3.5-.8,6.6h-1.9l-.7-6.6Z"/><path d="M743.3,308.8h2.3l.2,1.8h.1c.7-1.3,1.6-2.2,3.2-2.2c1.4,0,2.2.8,2.6,2.4.7-1.5,1.6-2.4,3.3-2.4c2,0,3.2,1.6,3.2,4.4v10.1h-2.8v-9.9c0-1.4-.4-2.2-1.3-2.2s-1.4.7-2,2v10.1h-2.5v-9.9c0-1.4-.4-2.2-1.3-2.2s-1.4.7-2,2v10.1h-2.8v-14.1Z"/><path d="M779.4,308.9l4.1-.2h8.4v2.3h-12.5v-2.1Zm3.9-1.1c0-3.4,1.8-5.8,5.9-5.8c1.5,0,2.8.3,4.1.8l-.6,2.1c-1.1-.5-2-.6-3.2-.6-2.3,0-3.3,1.3-3.3,3.4v15.2h-2.9v-15.1Z"/><path d="M802.8,311.1h-6.3v-2.3h9.2v14.2h-2.9v-11.9Zm-.9-7.2c0-1.2.9-2.1,2.2-2.1c1.2,0,2.2.8,2.2,2.1c0,1.2-.9,2.1-2.2,2.1s-2.2-.8-2.2-2.1Z"/><path d="M813.9,308.8h2.4l.2,2.3h.1c1.4-1.5,3-2.6,5.2-2.6c3.3,0,4.8,2,4.8,5.7v8.8h-2.9v-8.4c0-2.5-.8-3.6-2.9-3.6-1.5,0-2.6.8-4,2.3v9.8h-2.9v-14.3Z"/><path d="M830.6,315.8c0-4.6,3.5-7.4,7.3-7.4c4.2,0,6.5,2.7,6.5,6.7c0,.6-.1,1.2-.1,1.6h-11.7v-2.1h9.9l-.6.7c0-3.1-1.5-4.6-3.9-4.6-2.5,0-4.5,1.8-4.5,5.2c0,3.5,2.2,5.2,5.2,5.2c1.6,0,2.9-.5,4.1-1.2l1,1.8c-1.5,1-3.3,1.7-5.5,1.7-4.3-.1-7.7-2.9-7.7-7.6Z"/><path d="M849.6,306.5l-.1-3.5h3.6l-.1,3.5-.8,6.6h-1.9l-.7-6.6Zm7,0l-.1-3.5h3.6l-.1,3.5-.8,6.6h-1.9l-.7-6.6Z"/><path d="M869.1,327.4c2.5-1.1,3.7-2.6,3.7-4.9l-.4-2.9l1.7,2.5c-.5.5-1.1.7-1.7.7-1.4,0-2.5-.8-2.5-2.4c0-1.5,1.2-2.4,2.6-2.4c1.9,0,2.9,1.5,2.9,4c0,3.5-2,5.9-5.4,7.1l-.9-1.7Z"/><path d="M901.8,306.5l-.1-3.5h3.6l-.1,3.5-.8,6.6h-1.9l-.7-6.6Zm7,0l-.1-3.5h3.6l-.1,3.5-.8,6.6h-1.9l-.7-6.6Z"/><path d="M918,303.9h3.1l5.5,11.3l1.8,4h.1c-.1-1.9-.4-4.2-.4-6.3v-9h2.8v19h-3.1l-5.5-11.3-1.8-4h-.1c.1,2,.4,4.1.4,6.2v9.1h-2.8v-19Z"/><path d="M935.3,319.2c0-3.2,2.9-4.7,10-5.3-.1-1.8-1-3.2-3.6-3.2-1.7,0-3.4.8-4.8,1.6l-1.1-1.9c1.6-1,3.9-2,6.4-2c3.9,0,5.9,2.2,5.9,6v8.5h-2.4l-.2-1.8h-.1c-1.5,1.2-3.5,2.2-5.4,2.2-2.6,0-4.7-1.6-4.7-4.1Zm10.1-.1v-3.3c-5.6.4-7.2,1.5-7.2,3.2c0,1.4,1.3,2,2.8,2s2.9-.7,4.4-1.9Z"/><path d="M953.1,302.4h2.9v5.5l-.2,3.2h.1c1.3-1.4,3-2.6,5.1-2.6c3.3,0,4.8,2,4.8,5.7v8.8h-2.9v-8.4c0-2.5-.8-3.6-2.9-3.6-1.5,0-2.6.8-4,2.3v9.8h-2.9v-20.7Z"/><path d="M971.4,306.5l-.1-3.5h3.6l-.1,3.5-.8,6.6h-1.9l-.7-6.6Zm7,0l-.1-3.5h3.6l-.1,3.5-.8,6.6h-1.9l-.7-6.6Z"/><path d="M1005.7,325.7h1.4c2.8,0,3.4-.7,3.4-2.5c0-1.7-.2-3.2-.2-5.1c0-2,.7-2.9,2.7-3.2v-.1c-2-.3-2.7-1.3-2.7-3.2c0-1.8.2-3.5.2-5.1c0-1.8-.6-2.5-3.4-2.5h-1.4v-1.6h1.9c3.7,0,5.4.9,5.4,3.9c0,2-.3,3.6-.3,5.4c0,1.1.8,2.2,4.2,2.2v1.8c-3.4,0-4.2,1.1-4.2,2.2c0,1.9.3,3.3.3,5.4c0,3-1.7,3.9-5.4,3.9h-1.9v-1.5Z"/><path d="M1023.7,326.7c3.8-3.3,5.5-7,5.5-11.8s-1.7-8.5-5.5-11.8l1.6-1.4c4,3.2,6.4,7.6,6.4,13.2s-2.4,10-6.4,13.2l-1.6-1.4Z"/><path d="M1043.1,327.4c2.5-1.1,3.7-2.6,3.7-4.9l-.4-2.9l1.7,2.5c-.5.5-1.1.7-1.7.7-1.4,0-2.5-.8-2.5-2.4c0-1.5,1.2-2.4,2.6-2.4c1.9,0,2.9,1.5,2.9,4c0,3.5-2,5.9-5.4,7.1l-.9-1.7Zm.5-17c0-1.6,1.1-2.7,2.6-2.7s2.6,1.1,2.6,2.7-1.1,2.7-2.6,2.7-2.6-1.1-2.6-2.7Z"/></g><g id="ew8Svf1dVbG174" transform="translate(-6.150033 349.611741)"><g id="ew8Svf1dVbG175" transform="translate(-24.500004-254.90371)" opacity="0"><path d="M327.2,450.2h-214.4c-17.5,0-31.7-14.2-31.7-31.7v-12.1c0-17.5,14.2-31.7,31.7-31.7h214.5c17.5,0,31.7,14.2,31.7,31.7v12.1c-.1,17.6-14.3,31.7-31.8,31.7Z" fill="#8fc31f"/><g><path d="M166.5,427.5v-29.3h5.9v11.6h11.6v-11.6h5.9v29.3h-5.9v-12.8h-11.6v12.8h-5.9Z"/><path d="M208.4,420.7l5.6.9c-.7,2.1-1.9,3.6-3.4,4.7-1.6,1.1-3.5,1.6-5.8,1.6-3.7,0-6.4-1.2-8.2-3.6-1.4-1.9-2.1-4.4-2.1-7.3c0-3.5.9-6.3,2.8-8.3s4.2-3,7-3c3.2,0,5.7,1,7.5,3.1s2.7,5.3,2.6,9.6h-14.1c0,1.7.5,3,1.4,3.9s1.9,1.4,3.2,1.4c.9,0,1.6-.2,2.2-.7s1-1.2,1.3-2.3Zm.3-5.7c0-1.6-.5-2.9-1.3-3.7s-1.8-1.3-2.9-1.3c-1.2,0-2.2.4-3,1.3s-1.2,2.1-1.2,3.6h8.4Z"/><path d="M218.9,427.5v-29.3h5.6v29.3h-5.6Z"/><path d="M230.3,427.5v-29.3h5.6v29.3h-5.6Z"/><path d="M240.4,416.6c0-1.9.5-3.7,1.4-5.4s2.2-3.1,3.9-4s3.6-1.4,5.7-1.4c3.2,0,5.9,1,7.9,3.1c2.1,2.1,3.1,4.7,3.1,7.9s-1,5.9-3.1,8-4.7,3.2-7.8,3.2c-1.9,0-3.8-.4-5.6-1.3s-3.1-2.2-4-3.9c-1.1-1.7-1.5-3.8-1.5-6.2Zm5.7.3c0,2.1.5,3.7,1.5,4.8s2.2,1.7,3.7,1.7s2.7-.6,3.7-1.7s1.5-2.8,1.5-4.9-.5-3.7-1.5-4.8-2.2-1.7-3.7-1.7-2.7.6-3.7,1.7-1.5,2.8-1.5,4.9Z"/><path d="M268.9,419.9L267.4,405v-6.9h6.1v6.9l-1.4,14.9h-3.2Zm-1.2,7.6v-5.6h5.6v5.6h-5.6Z"/></g></g><g id="ew8Svf1dVbG184" transform="translate(-12.050007-153.40039)" opacity="0"><path d="M1104.4,452.7h-186.3c-17.5,0-31.7-14.2-31.7-31.7v-12c0-17.5,14.2-31.7,31.7-31.7h186.3c17.5,0,31.7,14.2,31.7,31.7v12.1c-.1,17.5-14.3,31.6-31.7,31.6Z" fill="#f7f8f8"/><g><path d="M969.6,426.4v-29.4h5.9v11.6h11.6v-11.6h5.9v29.3h-5.9v-12.8h-11.6v12.8h-5.9Z"/><path d="M1011.5,419.6l5.6.9c-.7,2.1-1.9,3.6-3.4,4.7s-3.5,1.6-5.8,1.6c-3.7,0-6.4-1.2-8.2-3.6-1.4-1.9-2.1-4.4-2.1-7.3c0-3.5.9-6.3,2.8-8.3s4.2-3,7-3c3.2,0,5.7,1,7.5,3.1s2.7,5.3,2.6,9.6h-14.1c0,1.7.5,3,1.4,3.9s1.9,1.4,3.2,1.4c.9,0,1.6-.2,2.2-.7s.9-1.2,1.3-2.3Zm.3-5.7c0-1.6-.5-2.9-1.3-3.7s-1.8-1.3-2.9-1.3c-1.2,0-2.2.4-3,1.3s-1.2,2.1-1.2,3.6h8.4Z"/><path d="M1019.3,405.1h6l5.1,15.1l5-15.1h5.8l-7.5,20.5-1.3,3.7c-.5,1.2-1,2.2-1.4,2.8-.4.7-1,1.2-1.5,1.6s-1.3.7-2.1,1c-.8.2-1.8.3-2.9.3s-2.1-.1-3.2-.3l-.5-4.4c.9.2,1.7.3,2.4.3c1.3,0,2.3-.4,2.9-1.2s1.1-1.7,1.4-2.9l-8.2-21.4Z"/><path d="M1046.9,418.8l-1.5-14.9v-6.9h6.1v6.9l-1.4,14.9h-3.2Zm-1.2,7.6v-5.6h5.6v5.6h-5.6Z"/></g></g><g id="ew8Svf1dVbG191" transform="translate(-9.699994-48.493786)" opacity="0"><path d="M1105.3,556h-186.3c-17.5,0-31.7-14.2-31.7-31.7v-12.1c0-17.5,14.2-31.7,31.7-31.7h186.3c17.5,0,31.7,14.2,31.7,31.7v12.1c0,17.5-14.2,31.7-31.7,31.7Z" fill="#fff"/><g><path d="M975.7,535.3v-29.3h5.8l12,19.6v-19.6h5.5v29.3h-5.9l-11.8-19.1v19.1h-5.6Z"/><path d="M1009.5,520.5l-5.1-.9c.6-2.1,1.6-3.6,3-4.6s3.5-1.5,6.2-1.5c2.5,0,4.4.3,5.6.9s2.1,1.3,2.6,2.3c.5.9.8,2.6.8,5l-.1,6.6c0,1.9.1,3.2.3,4.1s.5,1.8,1,2.9h-5.6c-.1-.4-.3-.9-.5-1.7-.1-.3-.2-.6-.2-.7-1,.9-2,1.6-3.1,2.1s-2.3.7-3.5.7c-2.2,0-3.9-.6-5.2-1.8s-1.9-2.7-1.9-4.5c0-1.2.3-2.3.9-3.2s1.4-1.7,2.4-2.2s2.5-.9,4.5-1.3c2.6-.5,4.5-1,5.5-1.4v-.6c0-1.1-.3-1.9-.8-2.3-.5-.5-1.5-.7-3-.7-1,0-1.8.2-2.3.6-.7.5-1.2,1.2-1.5,2.2Zm7.5,4.6c-.7.2-1.9.5-3.4.9-1.6.3-2.6.7-3.1,1-.7.5-1.1,1.2-1.1,2s.3,1.5.9,2c.6.6,1.3.9,2.2.9c1,0,2-.3,2.9-1c.7-.5,1.1-1.1,1.3-1.9.1-.5.2-1.4.2-2.7v-1.2Z"/><path d="M1033.7,505.9v10.8c1.8-2.1,4-3.2,6.5-3.2c1.3,0,2.5.2,3.5.7s1.8,1.1,2.4,1.8c.5.7.9,1.6,1.1,2.5s.3,2.3.3,4.2v12.5h-5.6v-11.2c0-2.2-.1-3.6-.3-4.2s-.6-1.1-1.1-1.4-1.2-.5-2-.5c-.9,0-1.8.2-2.5.7s-1.3,1.1-1.6,2.1c-.3.9-.5,2.3-.5,4.1v10.7h-5.6v-29.3h5.4Z"/><path d="M1053.1,535.3v-5.6h5.6v5.6h-5.6Z"/></g></g><g id="ew8Svf1dVbG198" transform="translate(-10.200006-144.09708)" opacity="0"><path d="M448.5,547.5h-350c-17.5,0-31.7-14.2-31.7-31.7v-12.1C66.8,486.2,81,472,98.5,472h350c17.5,0,31.7,14.2,31.7,31.7v12.1c0,17.5-14.2,31.7-31.7,31.7Z" fill="#8fc31f"/><g><path d="M127,525.4v-29.3h5.9v11.6h11.6v-11.6h5.9v29.3h-5.9v-12.8h-11.6v12.8h-5.9Z"/><path d="M155.2,514.5c0-1.9.5-3.7,1.4-5.4s2.2-3.1,3.9-4s3.6-1.4,5.7-1.4c3.2,0,5.9,1,7.9,3.1c2.1,2.1,3.1,4.7,3.1,7.9s-1,5.9-3.1,8-4.7,3.2-7.8,3.2c-1.9,0-3.8-.4-5.6-1.3s-3.1-2.2-4-3.9c-1-1.7-1.5-3.8-1.5-6.2Zm5.8.3c0,2.1.5,3.7,1.5,4.8s2.2,1.7,3.7,1.7s2.7-.6,3.7-1.7s1.5-2.8,1.5-4.9-.5-3.7-1.5-4.8-2.2-1.7-3.7-1.7-2.7.6-3.7,1.7-1.5,2.8-1.5,4.9Z"/><path d="M185.5,525.4l-6.7-21.3h5.5l4,13.9l3.7-13.9h5.4l3.5,13.9l4.1-13.9h5.5l-6.8,21.3h-5.4l-3.7-13.7-3.6,13.7h-5.5Z"/><path d="M213.3,496.2h5.6v4c0,1.6-.1,2.9-.4,3.9-.3.9-.8,1.8-1.6,2.5s-1.8,1.3-3,1.8l-1.1-2.3c1.1-.4,1.9-.9,2.4-1.5.5-.7.7-1.5.8-2.7h-2.7v-5.7Z"/><path d="M243.4,519.4l5.6-.9c.2,1.1.7,1.9,1.5,2.5.7.6,1.8.9,3.1.9c1.5,0,2.5-.3,3.3-.8.5-.4.7-.9.7-1.5c0-.4-.1-.8-.4-1.1s-.9-.5-1.9-.7c-4.5-1-7.4-1.9-8.6-2.7-1.7-1.1-2.5-2.7-2.5-4.8c0-1.8.7-3.4,2.2-4.6c1.5-1.3,3.7-1.9,6.8-1.9c2.9,0,5.1.5,6.5,1.4s2.4,2.3,2.9,4.2l-5.3,1c-.2-.8-.7-1.5-1.3-1.9s-1.5-.7-2.7-.7c-1.5,0-2.5.2-3.2.6-.4.3-.6.7-.6,1.1s.2.7.6,1c.5.4,2.3.9,5.3,1.6s5.1,1.5,6.3,2.5s1.8,2.4,1.8,4.2c0,1.9-.8,3.6-2.4,5s-4,2.1-7.2,2.1c-2.9,0-5.2-.6-6.9-1.8-2-1.1-3.1-2.7-3.6-4.7Z"/><path d="M279,526.8l6.4.8c.1.7.4,1.3.7,1.5.5.4,1.4.6,2.5.6c1.5,0,2.6-.2,3.3-.7.5-.3.9-.8,1.1-1.4.2-.5.3-1.3.3-2.6v-3c-1.7,2.3-3.8,3.4-6.4,3.4-2.9,0-5.1-1.2-6.8-3.6-1.3-1.9-2-4.3-2-7.1c0-3.6.9-6.3,2.6-8.2s3.8-2.8,6.4-2.8s4.8,1.2,6.5,3.5v-3h5.3v19.1c0,2.5-.2,4.4-.6,5.6s-1,2.2-1.7,2.9-1.7,1.3-3,1.7-2.8.6-4.7.6c-3.6,0-6.2-.6-7.7-1.9-1.5-1.2-2.3-2.8-2.3-4.7.1-.2.1-.4.1-.7Zm5-12.4c0,2.3.4,3.9,1.3,5c.9,1,2,1.6,3.2,1.6c1.4,0,2.5-.5,3.5-1.6.9-1.1,1.4-2.7,1.4-4.8c0-2.2-.5-3.8-1.4-4.9s-2.1-1.6-3.4-1.6-2.5.5-3.3,1.6c-.8.9-1.3,2.5-1.3,4.7Z"/><path d="M303.3,514.5c0-1.9.5-3.7,1.4-5.4s2.2-3.1,3.9-4s3.6-1.4,5.7-1.4c3.2,0,5.9,1,7.9,3.1c2.1,2.1,3.1,4.7,3.1,7.9s-1,5.9-3.1,8-4.7,3.2-7.8,3.2c-1.9,0-3.8-.4-5.6-1.3s-3.1-2.2-4-3.9c-1.1-1.7-1.5-3.8-1.5-6.2Zm5.7.3c0,2.1.5,3.7,1.5,4.8s2.2,1.7,3.7,1.7s2.7-.6,3.7-1.7s1.5-2.8,1.5-4.9-.5-3.7-1.5-4.8-2.2-1.7-3.7-1.7-2.7.6-3.7,1.7-1.5,2.8-1.5,4.9Z"/><path d="M329.6,501.3v-5.2h5.6v5.2h-5.6Zm0,24.1v-21.3h5.6v21.3h-5.6Z"/><path d="M360.4,525.4h-5.6v-10.9c0-2.3-.1-3.8-.4-4.5s-.6-1.2-1.2-1.6c-.5-.4-1.2-.6-2-.6-1,0-1.8.3-2.6.8s-1.3,1.2-1.6,2.1-.4,2.5-.4,4.9v9.6h-5.6v-21.3h5.2v3.1c1.9-2.4,4.2-3.6,7-3.6c1.2,0,2.4.2,3.4.7c1,.4,1.8,1,2.3,1.7s.9,1.5,1.1,2.4.3,2.1.3,3.8v13.4Z"/><path d="M365.5,526.8l6.4.8c.1.7.4,1.3.7,1.5.5.4,1.4.6,2.5.6c1.5,0,2.6-.2,3.3-.7.5-.3.9-.8,1.1-1.4.2-.5.3-1.3.3-2.6v-3c-1.7,2.3-3.8,3.4-6.4,3.4-2.9,0-5.1-1.2-6.8-3.6-1.3-1.9-2-4.3-2-7.1c0-3.6.9-6.3,2.6-8.2s3.8-2.8,6.4-2.8s4.8,1.2,6.5,3.5v-3h5.3v19.1c0,2.5-.2,4.4-.6,5.6s-1,2.2-1.7,2.9-1.7,1.3-3,1.7-2.8.6-4.7.6c-3.6,0-6.2-.6-7.7-1.9-1.5-1.2-2.3-2.8-2.3-4.7.1-.2.1-.4.1-.7Zm5.1-12.4c0,2.3.4,3.9,1.3,5c.9,1,2,1.6,3.2,1.6c1.4,0,2.5-.5,3.5-1.6.9-1.1,1.4-2.7,1.4-4.8c0-2.2-.5-3.8-1.4-4.9s-2.1-1.6-3.4-1.6-2.5.5-3.3,1.6c-.9.9-1.3,2.5-1.3,4.7Z"/><path d="M403.2,517.9h-5.1c0-.7,0-1.2,0-1.3c0-1.7.3-3,.8-4.1s1.6-2.3,3.3-3.6c1.6-1.3,2.6-2.2,2.9-2.6.5-.7.7-1.4.7-2.2c0-1.1-.4-2-1.3-2.8s-2.1-1.2-3.5-1.2-2.6.4-3.6,1.2-1.6,2.1-2,3.7l-5.2-.6c.1-2.4,1.2-4.4,3.1-6.1s4.4-2.5,7.4-2.5c3.2,0,5.8.8,7.7,2.5s2.9,3.7,2.9,5.9c0,1.2-.4,2.4-1.1,3.5s-2.2,2.6-4.5,4.5c-1.2,1-1.9,1.8-2.2,2.4-.2.6-.3,1.7-.3,3.3Zm-5.1,7.5v-5.6h5.6v5.6h-5.6Z"/></g></g></g><script><![CDATA[!function(t,n){"object"==typeof exports&&"undefined"!=typeof module?module.exports=n():"function"==typeof define&&define.amd?define(n):((t="undefined"!=typeof globalThis?globalThis:t||self).__SVGATOR_PLAYER__=t.__SVGATOR_PLAYER__||{},t.__SVGATOR_PLAYER__["5c7f360c"]=n())}(this,(function(){"use strict";function t(t,n){var r=Object.keys(t);if(Object.getOwnPropertySymbols){var e=Object.getOwnPropertySymbols(t);n&&(e=e.filter((function(n){return Object.getOwnPropertyDescriptor(t,n).enumerable}))),r.push.apply(r,e)}return r}function n(n){for(var r=1;r<arguments.length;r++){var e=null!=arguments[r]?arguments[r]:{};r%2?t(Object(e),!0).forEach((function(t){u(n,t,e[t])})):Object.getOwnPropertyDescriptors?Object.defineProperties(n,Object.getOwnPropertyDescriptors(e)):t(Object(e)).forEach((function(t){Object.defineProperty(n,t,Object.getOwnPropertyDescriptor(e,t))}))}return n}function r(t){return(r="function"==typeof Symbol&&"symbol"==typeof Symbol.iterator?function(t){return typeof t}:function(t){return t&&"function"==typeof Symbol&&t.constructor===Symbol&&t!==Symbol.prototype?"symbol":typeof t})(t)}function e(t,n){if(!(t instanceof n))throw new TypeError("Cannot call a class as a function")}function i(t,n){for(var r=0;r<n.length;r++){var e=n[r];e.enumerable=e.enumerable||!1,e.configurable=!0,"value"in e&&(e.writable=!0),Object.defineProperty(t,e.key,e)}}function o(t,n,r){return n&&i(t.prototype,n),r&&i(t,r),t}function u(t,n,r){return n in t?Object.defineProperty(t,n,{value:r,enumerable:!0,configurable:!0,writable:!0}):t[n]=r,t}function a(t){return(a=Object.setPrototypeOf?Object.getPrototypeOf:function(t){return t.__proto__||Object.getPrototypeOf(t)})(t)}function l(t,n){return(l=Object.setPrototypeOf||function(t,n){return t.__proto__=n,t})(t,n)}function f(){if("undefined"==typeof Reflect||!Reflect.construct)return!1;if(Reflect.construct.sham)return!1;if("function"==typeof Proxy)return!0;try{return Boolean.prototype.valueOf.call(Reflect.construct(Boolean,[],(function(){}))),!0}catch(t){return!1}}function s(t,n,r){return(s=f()?Reflect.construct:function(t,n,r){var e=[null];e.push.apply(e,n);var i=new(Function.bind.apply(t,e));return r&&l(i,r.prototype),i}).apply(null,arguments)}function c(t,n){if(n&&("object"==typeof n||"function"==typeof n))return n;if(void 0!==n)throw new TypeError("Derived constructors may only return object or undefined");return function(t){if(void 0===t)throw new ReferenceError("this hasn't been initialised - super() hasn't been called");return t}(t)}function h(t,n,r){return(h="undefined"!=typeof Reflect&&Reflect.get?Reflect.get:function(t,n,r){var e=function(t,n){for(;!Object.prototype.hasOwnProperty.call(t,n)&&null!==(t=a(t)););return t}(t,n);if(e){var i=Object.getOwnPropertyDescriptor(e,n);return i.get?i.get.call(r):i.value}})(t,n,r||t)}function v(t){return function(t){if(Array.isArray(t))return y(t)}(t)||function(t){if("undefined"!=typeof Symbol&&null!=t[Symbol.iterator]||null!=t["@@iterator"])return Array.from(t)}(t)||function(t,n){if(!t)return;if("string"==typeof t)return y(t,n);var r=Object.prototype.toString.call(t).slice(8,-1);"Object"===r&&t.constructor&&(r=t.constructor.name);if("Map"===r||"Set"===r)return Array.from(t);if("Arguments"===r||/^(?:Ui|I)nt(?:8|16|32)(?:Clamped)?Array$/.test(r))return y(t,n)}(t)||function(){throw new TypeError("Invalid attempt to spread non-iterable instance.\nIn order to be iterable, non-array objects must have a [Symbol.iterator]() method.")}()}function y(t,n){(null==n||n>t.length)&&(n=t.length);for(var r=0,e=new Array(n);r<n;r++)e[r]=t[r];return e}Number.isInteger||(Number.isInteger=function(t){return"number"==typeof t&&isFinite(t)&&Math.floor(t)===t}),Number.EPSILON||(Number.EPSILON=2220446049250313e-31);var g=p(Math.pow(10,-6));function p(t){var n=arguments.length>1&&void 0!==arguments[1]?arguments[1]:6;if(Number.isInteger(t))return t;var r=Math.pow(10,n);return Math.round((+t+Number.EPSILON)*r)/r}function d(t,n){var r=arguments.length>2&&void 0!==arguments[2]?arguments[2]:g;return Math.abs(t-n)<r}var m=Math.PI/180;function b(t){return t}function w(t,n,r){var e=1-r;return 3*r*e*(t*e+n*r)+r*r*r}function x(){var t=arguments.length>0&&void 0!==arguments[0]?arguments[0]:0,n=arguments.length>1&&void 0!==arguments[1]?arguments[1]:0,r=arguments.length>2&&void 0!==arguments[2]?arguments[2]:1,e=arguments.length>3&&void 0!==arguments[3]?arguments[3]:1;return t<0||t>1||r<0||r>1?null:d(t,n)&&d(r,e)?b:function(i){if(i<=0)return t>0?i*n/t:0===n&&r>0?i*e/r:0;if(i>=1)return r<1?1+(i-1)*(e-1)/(r-1):1===r&&t<1?1+(i-1)*(n-1)/(t-1):1;for(var o,u=0,a=1;u<a;){var l=w(t,r,o=(u+a)/2);if(d(i,l))break;l<i?u=o:a=o}return w(n,e,o)}}function A(){return 1}function k(t){return 1===t?1:0}function _(){var t=arguments.length>0&&void 0!==arguments[0]?arguments[0]:1,n=arguments.length>1&&void 0!==arguments[1]?arguments[1]:0;if(1===t){if(0===n)return k;if(1===n)return A}var r=1/t;return function(t){return t>=1?1:(t+=n*r)-t%r}}var S=Math.sin,O=Math.cos,j=Math.acos,M=Math.asin,P=Math.tan,E=Math.atan2,I=Math.PI/180,R=180/Math.PI,F=Math.sqrt,N=function(){function t(){var n=arguments.length>0&&void 0!==arguments[0]?arguments[0]:1,r=arguments.length>1&&void 0!==arguments[1]?arguments[1]:0,i=arguments.length>2&&void 0!==arguments[2]?arguments[2]:0,o=arguments.length>3&&void 0!==arguments[3]?arguments[3]:1,u=arguments.length>4&&void 0!==arguments[4]?arguments[4]:0,a=arguments.length>5&&void 0!==arguments[5]?arguments[5]:0;e(this,t),this.m=[n,r,i,o,u,a],this.i=null,this.w=null,this.s=null}return o(t,[{key:"determinant",get:function(){var t=this.m;return t[0]*t[3]-t[1]*t[2]}},{key:"isIdentity",get:function(){if(null===this.i){var t=this.m;this.i=1===t[0]&&0===t[1]&&0===t[2]&&1===t[3]&&0===t[4]&&0===t[5]}return this.i}},{key:"point",value:function(t,n){var r=this.m;return{x:r[0]*t+r[2]*n+r[4],y:r[1]*t+r[3]*n+r[5]}}},{key:"translateSelf",value:function(){var t=arguments.length>0&&void 0!==arguments[0]?arguments[0]:0,n=arguments.length>1&&void 0!==arguments[1]?arguments[1]:0;if(!t&&!n)return this;var r=this.m;return r[4]+=r[0]*t+r[2]*n,r[5]+=r[1]*t+r[3]*n,this.w=this.s=this.i=null,this}},{key:"rotateSelf",value:function(){var t=arguments.length>0&&void 0!==arguments[0]?arguments[0]:0;if(t%=360){var n=S(t*=I),r=O(t),e=this.m,i=e[0],o=e[1];e[0]=i*r+e[2]*n,e[1]=o*r+e[3]*n,e[2]=e[2]*r-i*n,e[3]=e[3]*r-o*n,this.w=this.s=this.i=null}return this}},{key:"scaleSelf",value:function(){var t=arguments.length>0&&void 0!==arguments[0]?arguments[0]:1,n=arguments.length>1&&void 0!==arguments[1]?arguments[1]:1;if(1!==t||1!==n){var r=this.m;r[0]*=t,r[1]*=t,r[2]*=n,r[3]*=n,this.w=this.s=this.i=null}return this}},{key:"skewSelf",value:function(t,n){if(n%=360,(t%=360)||n){var r=this.m,e=r[0],i=r[1],o=r[2],u=r[3];t&&(t=P(t*I),r[2]+=e*t,r[3]+=i*t),n&&(n=P(n*I),r[0]+=o*n,r[1]+=u*n),this.w=this.s=this.i=null}return this}},{key:"resetSelf",value:function(){var t=arguments.length>0&&void 0!==arguments[0]?arguments[0]:1,n=arguments.length>1&&void 0!==arguments[1]?arguments[1]:0,r=arguments.length>2&&void 0!==arguments[2]?arguments[2]:0,e=arguments.length>3&&void 0!==arguments[3]?arguments[3]:1,i=arguments.length>4&&void 0!==arguments[4]?arguments[4]:0,o=arguments.length>5&&void 0!==arguments[5]?arguments[5]:0,u=this.m;return u[0]=t,u[1]=n,u[2]=r,u[3]=e,u[4]=i,u[5]=o,this.w=this.s=this.i=null,this}},{key:"recomposeSelf",value:function(){var t=arguments.length>0&&void 0!==arguments[0]?arguments[0]:null,n=arguments.length>1&&void 0!==arguments[1]?arguments[1]:null,r=arguments.length>2&&void 0!==arguments[2]?arguments[2]:null,e=arguments.length>3&&void 0!==arguments[3]?arguments[3]:null,i=arguments.length>4&&void 0!==arguments[4]?arguments[4]:null;return this.isIdentity||this.resetSelf(),t&&(t.x||t.y)&&this.translateSelf(t.x,t.y),n&&this.rotateSelf(n),r&&(r.x&&this.skewSelf(r.x,0),r.y&&this.skewSelf(0,r.y)),!e||1===e.x&&1===e.y||this.scaleSelf(e.x,e.y),i&&(i.x||i.y)&&this.translateSelf(i.x,i.y),this}},{key:"decompose",value:function(){var t=arguments.length>0&&void 0!==arguments[0]?arguments[0]:0,n=arguments.length>1&&void 0!==arguments[1]?arguments[1]:0,r=this.m,e=r[0]*r[0]+r[1]*r[1],i=[[r[0],r[1]],[r[2],r[3]]],o=F(e);if(0===o)return{origin:{x:p(r[4]),y:p(r[5])},translate:{x:p(t),y:p(n)},scale:{x:0,y:0},skew:{x:0,y:0},rotate:0};i[0][0]/=o,i[0][1]/=o;var u=r[0]*r[3]-r[1]*r[2]<0;u&&(o=-o);var a=i[0][0]*i[1][0]+i[0][1]*i[1][1];i[1][0]-=i[0][0]*a,i[1][1]-=i[0][1]*a;var l=F(i[1][0]*i[1][0]+i[1][1]*i[1][1]);if(0===l)return{origin:{x:p(r[4]),y:p(r[5])},translate:{x:p(t),y:p(n)},scale:{x:p(o),y:0},skew:{x:0,y:0},rotate:0};i[1][0]/=l,i[1][1]/=l,a/=l;var f=0;return i[1][1]<0?(f=j(i[1][1])*R,i[0][1]<0&&(f=360-f)):f=M(i[0][1])*R,u&&(f=-f),a=E(a,F(i[0][0]*i[0][0]+i[0][1]*i[0][1]))*R,u&&(a=-a),{origin:{x:p(r[4]),y:p(r[5])},translate:{x:p(t),y:p(n)},scale:{x:p(o),y:p(l)},skew:{x:p(a),y:0},rotate:p(f)}}},{key:"clone",value:function(){var t=this.m;return new this.constructor(t[0],t[1],t[2],t[3],t[4],t[5])}},{key:"toString",value:function(){var t=arguments.length>0&&void 0!==arguments[0]?arguments[0]:" ";if(null===this.s){var n=this.m.map((function(t){return p(t)}));1===n[0]&&0===n[1]&&0===n[2]&&1===n[3]?this.s="translate("+n[4]+t+n[5]+")":this.s="matrix("+n.join(t)+")"}return this.s}}],[{key:"create",value:function(t){return t?Array.isArray(t)?s(this,v(t)):t instanceof this?t.clone():(new this).recomposeSelf(t.origin,t.rotate,t.skew,t.scale,t.translate):new this}}]),t}();function T(t,n,r){return t>=.5?r:n}function q(t,n,r){return 0===t||n===r?n:t*(r-n)+n}function B(t,n,r){var e=q(t,n,r);return e<=0?0:e}function L(t,n,r){var e=q(t,n,r);return e<=0?0:e>=1?1:e}function C(t,n,r){return 0===t?n:1===t?r:{x:q(t,n.x,r.x),y:q(t,n.y,r.y)}}function D(t,n,r){var e=function(t,n,r){return Math.round(q(t,n,r))}(t,n,r);return e<=0?0:e>=255?255:e}function z(t,n,r){return 0===t?n:1===t?r:{r:D(t,n.r,r.r),g:D(t,n.g,r.g),b:D(t,n.b,r.b),a:q(t,null==n.a?1:n.a,null==r.a?1:r.a)}}function V(t,n){for(var r=[],e=0;e<t;e++)r.push(n);return r}function G(t,n){if(--n<=0)return t;var r=(t=Object.assign([],t)).length;do{for(var e=0;e<r;e++)t.push(t[e])}while(--n>0);return t}var Y,$=function(){function t(n){e(this,t),this.list=n,this.length=n.length}return o(t,[{key:"setAttribute",value:function(t,n){for(var r=this.list,e=0;e<this.length;e++)r[e].setAttribute(t,n)}},{key:"removeAttribute",value:function(t){for(var n=this.list,r=0;r<this.length;r++)n[r].removeAttribute(t)}},{key:"style",value:function(t,n){for(var r=this.list,e=0;e<this.length;e++)r[e].style[t]=n}}]),t}(),U=/-./g,Q=function(t,n){return n.toUpperCase()};function H(t){return"function"==typeof t?t:T}function J(t){return t?"function"==typeof t?t:Array.isArray(t)?function(t){var n=arguments.length>1&&void 0!==arguments[1]?arguments[1]:b;if(!Array.isArray(t))return n;switch(t.length){case 1:return _(t[0])||n;case 2:return _(t[0],t[1])||n;case 4:return x(t[0],t[1],t[2],t[3])||n}return n}(t,null):function(t,n){var r=arguments.length>2&&void 0!==arguments[2]?arguments[2]:b;switch(t){case"linear":return b;case"steps":return _(n.steps||1,n.jump||0)||r;case"bezier":case"cubic-bezier":return x(n.x1||0,n.y1||0,n.x2||0,n.y2||0)||r}return r}(t.type,t.value,null):null}function Z(t,n,r){var e=arguments.length>3&&void 0!==arguments[3]&&arguments[3],i=n.length-1;if(t<=n[0].t)return e?[0,0,n[0].v]:n[0].v;if(t>=n[i].t)return e?[i,1,n[i].v]:n[i].v;var o,u=n[0],a=null;for(o=1;o<=i;o++){if(!(t>n[o].t)){a=n[o];break}u=n[o]}return null==a?e?[i,1,n[i].v]:n[i].v:u.t===a.t?e?[o,1,a.v]:a.v:(t=(t-u.t)/(a.t-u.t),u.e&&(t=u.e(t)),e?[o,t,r(t,u.v,a.v)]:r(t,u.v,a.v))}function K(t,n){var r=arguments.length>2&&void 0!==arguments[2]?arguments[2]:null;return t&&t.length?"function"!=typeof n?null:("function"!=typeof r&&(r=null),function(e){var i=Z(e,t,n);return null!=i&&r&&(i=r(i)),i}):null}function W(t,n){return t.t-n.t}function X(t,n,e,i,o){var u,a="@"===e[0],l="#"===e[0],f=Y[e],s=T;switch(a?(u=e.substr(1),e=u.replace(U,Q)):l&&(e=e.substr(1)),r(f)){case"function":if(s=f(i,o,Z,J,e,a,n,t),l)return s;break;case"string":s=K(i,H(f));break;case"object":if((s=K(i,H(f.i),f.f))&&"function"==typeof f.u)return f.u(n,s,e,a,t)}return s?function(t,n,r){if(arguments.length>3&&void 0!==arguments[3]&&arguments[3])return t instanceof $?function(e){return t.style(n,r(e))}:function(e){return t.style[n]=r(e)};if(Array.isArray(n)){var e=n.length;return function(i){var o=r(i);if(null==o)for(var u=0;u<e;u++)t[u].removeAttribute(n);else for(var a=0;a<e;a++)t[a].setAttribute(n,o)}}return function(e){var i=r(e);null==i?t.removeAttribute(n):t.setAttribute(n,i)}}(n,e,s,a):null}function tt(t,n,e,i){if(!i||"object"!==r(i))return null;var o=null,u=null;return Array.isArray(i)?u=function(t){if(!t||!t.length)return null;for(var n=0;n<t.length;n++)t[n].e&&(t[n].e=J(t[n].e));return t.sort(W)}(i):(u=i.keys,o=i.data||null),u?X(t,n,e,u,o):null}function nt(t,n,r){if(!r)return null;var e=[];for(var i in r)if(r.hasOwnProperty(i)){var o=tt(t,n,i,r[i]);o&&e.push(o)}return e.length?e:null}function rt(t,n){if(!n.duration||n.duration<0)return null;var r=function(t,n){if(!n)return null;var r=[];if(Array.isArray(n))for(var e=n.length,i=0;i<e;i++){var o=n[i];if(2===o.length){var u=null;if("string"==typeof o[0])u=t.getElementById(o[0]);else if(Array.isArray(o[0])){u=[];for(var a=0;a<o[0].length;a++)if("string"==typeof o[0][a]){var l=t.getElementById(o[0][a]);l&&u.push(l)}u=u.length?1===u.length?u[0]:new $(u):null}if(u){var f=nt(t,u,o[1]);f&&(r=r.concat(f))}}}else for(var s in n)if(n.hasOwnProperty(s)){var c=t.getElementById(s);if(c){var h=nt(t,c,n[s]);h&&(r=r.concat(h))}}return r.length?r:null}(t,n.elements);return r?function(t,n){var r=arguments.length>2&&void 0!==arguments[2]?arguments[2]:1/0,e=arguments.length>3&&void 0!==arguments[3]?arguments[3]:1,i=arguments.length>4&&void 0!==arguments[4]&&arguments[4],o=arguments.length>5&&void 0!==arguments[5]?arguments[5]:1,u=t.length,a=e>0?n:0;i&&r%2==0&&(a=n-a);var l=null;return function(f,s){var c=f%n,h=1+(f-c)/n;s*=e,i&&h%2==0&&(s=-s);var v=!1;if(h>r)c=a,v=!0,-1===o&&(c=e>0?0:n);else if(s<0&&(c=n-c),c===l)return!1;l=c;for(var y=0;y<u;y++)t[y](c);return v}}(r,n.duration,n.iterations||1/0,n.direction||1,!!n.alternate,n.fill||1):null}function et(t){return+("0x"+(t.replace(/[^0-9a-fA-F]+/g,"")||27))}function it(t,n,r){return!t||!r||n>t.length?t:t.substring(0,n)+it(t.substring(n+1),r,r)}function ot(t){var n=arguments.length>1&&void 0!==arguments[1]?arguments[1]:27;return!t||t%n?t%n:ot(t/n,n)}function ut(t,n,r){if(t&&t.length){var e=et(r),i=et(n),o=ot(e)+5,u=it(t,ot(e,5),o);return u=u.replace(/\x7c$/g,"==").replace(/\x2f$/g,"="),u=function(t,n,r){var e=+("0x"+t.substring(0,4));t=t.substring(4);for(var i=n%e+r%27,o=[],u=0;u<t.length;u+=2)if("|"!==t[u]){var a=+("0x"+t[u]+t[u+1])-i;o.push(a)}else{var l=+("0x"+t.substring(u+1,u+1+4))-i;u+=3,o.push(l)}return String.fromCharCode.apply(String,o)}(u=(u=atob(u)).replace(/[\x41-\x5A]/g,""),i,e),u=JSON.parse(u)}}var at=function(){function t(n,r){var i=arguments.length>2&&void 0!==arguments[2]?arguments[2]:{};e(this,t),this._id=0,this._running=!1,this._rollingBack=!1,this._animations=n,this.duration=r.duration,this.alternate=r.alternate,this.fill=r.fill,this.iterations=r.iterations,this.direction=i.direction||1,this.speed=i.speed||1,this.fps=i.fps||100,this.offset=i.offset||0,this.rollbackStartOffset=0}return o(t,[{key:"maxFiniteDuration",get:function(){return this.iterations>0?this.iterations*this.duration:this.duration}},{key:"_apply",value:function(t){for(var n=arguments.length>1&&void 0!==arguments[1]?arguments[1]:{},r=this._animations,e=r.length,i=0,o=0;o<e;o++)n[o]?i++:(n[o]=r[o](t,this.direction),n[o]&&i++);return i}},{key:"_rollback",value:function(){var t=this,n=1/0,r=null;this.rollbackStartOffset=this.offset,this._rollingBack=!0,this._running=!0;this._id=window.requestAnimationFrame((function e(i){if(t._rollingBack){null==r&&(r=i);var o=i-r,u=t.rollbackStartOffset-o,a=Math.round(u*t.speed);if(a>t.duration&&n!==1/0){var l=!!t.alternate&&a/t.duration%2>1,f=a%t.duration;a=(f+=l?t.duration:0)||t.duration}var s=t.fps?1e3/t.fps:0,c=Math.max(0,a);c<n-s&&(t.offset=c,n=c,t._apply(c));var h=t.iterations>0&&-1===t.fill&&a>=t.maxFiniteDuration;(a<=0||t.offset<a||h)&&t.stop(),t._id=window.requestAnimationFrame(e)}}))}},{key:"_start",value:function(){var t=this,n=arguments.length>0&&void 0!==arguments[0]?arguments[0]:0,r=-1/0,e=null,i={};this._running=!0;var o=function o(u){null==e&&(e=u);var a=Math.round((u-e+n)*t.speed),l=t.fps?1e3/t.fps:0;if(a>r+l&&!t._rollingBack&&(t.offset=a,r=a,t._apply(a,i)===t._animations.length))return void t.pause(!0);t._id=window.requestAnimationFrame(o)};this._id=window.requestAnimationFrame(o)}},{key:"_pause",value:function(){this._id&&window.cancelAnimationFrame(this._id),this._running=!1}},{key:"play",value:function(){if(!this._running)return this._rollingBack?this._rollback():this._start(this.offset)}},{key:"stop",value:function(){this._pause(),this.offset=0,this.rollbackStartOffset=0,this._rollingBack=!1,this._apply(0)}},{key:"reachedToEnd",value:function(){return this.iterations>0&&this.offset>=this.iterations*this.duration}},{key:"restart",value:function(){var t=arguments.length>0&&void 0!==arguments[0]&&arguments[0];this.stop(t),this.play(t)}},{key:"pause",value:function(){this._pause()}},{key:"reverse",value:function(){this.direction=-this.direction}}],[{key:"build",value:function(t,r){return delete t.animationSettings,t.options=ut(t.options,t.root,"5c7f360c"),t.animations.map((function(r){var e=ut(r.s,t.root,"5c7f360c");for(var i in delete r.s,t.animationSettings||(t.animationSettings=n({},e)),e)e.hasOwnProperty(i)&&(r[i]=e[i])})),(t=function(t,n){if(Y=n,!t||!t.root||!Array.isArray(t.animations))return null;for(var r=document.getElementsByTagName("svg"),e=!1,i=0;i<r.length;i++)if(r[i].id===t.root&&!r[i].svgatorAnimation){(e=r[i]).svgatorAnimation=!0;break}if(!e)return null;var o=t.animations.map((function(t){return rt(e,t)})).filter((function(t){return!!t}));return o.length?{element:e,animations:o,animationSettings:t.animationSettings,options:t.options||void 0}:null}(t,r))?{el:t.element,options:t.options||{},player:new this(t.animations,t.animationSettings,t.options)}:null}},{key:"push",value:function(t){return this.build(t)}},{key:"init",value:function(){var t=this,n=window.__SVGATOR_PLAYER__&&window.__SVGATOR_PLAYER__["5c7f360c"];Array.isArray(n)&&n.splice(0).forEach((function(n){return t.build(n)}))}}]),t}();function lt(t){return p(t)+""}function ft(t){var n=arguments.length>1&&void 0!==arguments[1]?arguments[1]:" ";return t&&t.length?t.map(lt).join(n):""}function st(t){if(!t)return"transparent";if(null==t.a||t.a>=1){var n=function(t){return 1===(t=parseInt(t).toString(16)).length?"0"+t:t},r=function(t){return t.charAt(0)===t.charAt(1)},e=n(t.r),i=n(t.g),o=n(t.b);return r(e)&&r(i)&&r(o)&&(e=e.charAt(0),i=i.charAt(0),o=o.charAt(0)),"#"+e+i+o}return"rgba("+t.r+","+t.g+","+t.b+","+t.a+")"}function ct(t){return t?"url(#"+t+")":"none"}!function(){for(var t=0,n=["ms","moz","webkit","o"],r=0;r<n.length&&!window.requestAnimationFrame;++r)window.requestAnimationFrame=window[n[r]+"RequestAnimationFrame"],window.cancelAnimationFrame=window[n[r]+"CancelAnimationFrame"]||window[n[r]+"CancelRequestAnimationFrame"];window.requestAnimationFrame||(window.requestAnimationFrame=function(n){var r=Date.now(),e=Math.max(0,16-(r-t)),i=window.setTimeout((function(){n(r+e)}),e);return t=r+e,i},window.cancelAnimationFrame=window.clearTimeout)}();var ht={f:null,i:function(t,n,r){return 0===t?n:1===t?r:{x:B(t,n.x,r.x),y:B(t,n.y,r.y)}},u:function(t,n){return function(r){var e=n(r);t.setAttribute("rx",lt(e.x)),t.setAttribute("ry",lt(e.y))}}},vt={f:null,i:function(t,n,r){return 0===t?n:1===t?r:{width:B(t,n.width,r.width),height:B(t,n.height,r.height)}},u:function(t,n){return function(r){var e=n(r);t.setAttribute("width",lt(e.width)),t.setAttribute("height",lt(e.height))}}};Object.freeze({M:2,L:2,Z:0,H:1,V:1,C:6,Q:4,T:2,S:4,A:7});var yt={},gt=null;function pt(t){var n=function(){if(gt)return gt;if("object"!==("undefined"==typeof document?"undefined":r(document))||!document.createElementNS)return{};var t=document.createElementNS("http://www.w3.org/2000/svg","svg");return t&&t.style?(t.style.position="absolute",t.style.opacity="0.01",t.style.zIndex="-9999",t.style.left="-9999px",t.style.width="1px",t.style.height="1px",gt={svg:t}):{}}().svg;if(!n)return function(t){return null};var e=document.createElementNS(n.namespaceURI,"path");e.setAttributeNS(null,"d",t),e.setAttributeNS(null,"fill","none"),e.setAttributeNS(null,"stroke","none"),n.appendChild(e);var i=e.getTotalLength();return function(t){var n=e.getPointAtLength(i*t);return{x:n.x,y:n.y}}}function dt(t){return yt[t]?yt[t]:yt[t]=pt(t)}function mt(t,n,r,e){if(!t||!e)return!1;var i=["M",t.x,t.y];if(n&&r&&(i.push("C"),i.push(n.x),i.push(n.y),i.push(r.x),i.push(r.y)),n?!r:r){var o=n||r;i.push("Q"),i.push(o.x),i.push(o.y)}return n||r||i.push("L"),i.push(e.x),i.push(e.y),i.join(" ")}function bt(t,n,r,e){var i=arguments.length>4&&void 0!==arguments[4]?arguments[4]:1,o=mt(t,n,r,e),u=dt(o);try{return u(i)}catch(t){return null}}function wt(t,n,r){return t+(n-t)*r}function xt(t,n,r){var e=arguments.length>3&&void 0!==arguments[3]&&arguments[3],i={x:wt(t.x,n.x,r),y:wt(t.y,n.y,r)};return e&&(i.a=At(t,n)),i}function At(t,n){return Math.atan2(n.y-t.y,n.x-t.x)}function kt(t,n,r,e){var i=1-e;return i*i*t+2*i*e*n+e*e*r}function _t(t,n,r,e){return 2*(1-e)*(n-t)+2*e*(r-n)}function St(t,n,r,e){var i=arguments.length>4&&void 0!==arguments[4]&&arguments[4],o=bt(t,n,null,r,e);return o||(o={x:kt(t.x,n.x,r.x,e),y:kt(t.y,n.y,r.y,e)}),i&&(o.a=Ot(t,n,r,e)),o}function Ot(t,n,r,e){return Math.atan2(_t(t.y,n.y,r.y,e),_t(t.x,n.x,r.x,e))}function jt(t,n,r,e,i){var o=i*i;return i*o*(e-t+3*(n-r))+3*o*(t+r-2*n)+3*i*(n-t)+t}function Mt(t,n,r,e,i){var o=1-i;return 3*(o*o*(n-t)+2*o*i*(r-n)+i*i*(e-r))}function Pt(t,n,r,e,i){var o=arguments.length>5&&void 0!==arguments[5]&&arguments[5],u=bt(t,n,r,e,i);return u||(u={x:jt(t.x,n.x,r.x,e.x,i),y:jt(t.y,n.y,r.y,e.y,i)}),o&&(u.a=Et(t,n,r,e,i)),u}function Et(t,n,r,e,i){return Math.atan2(Mt(t.y,n.y,r.y,e.y,i),Mt(t.x,n.x,r.x,e.x,i))}function It(t,n,r){var e=arguments.length>3&&void 0!==arguments[3]&&arguments[3];if(Ft(n)){if(Nt(r))return St(n,r.start,r,t,e)}else if(Ft(r)){if(n.end)return St(n,n.end,r,t,e)}else{if(n.end)return r.start?Pt(n,n.end,r.start,r,t,e):St(n,n.end,r,t,e);if(r.start)return St(n,r.start,r,t,e)}return xt(n,r,t,e)}function Rt(t,n,r){var e=It(t,n,r,!0);return e.a=function(t){return arguments.length>1&&void 0!==arguments[1]&&arguments[1]?t+Math.PI:t}(e.a)/m,e}function Ft(t){return!t.type||"corner"===t.type}function Nt(t){return null!=t.start&&!Ft(t)}var Tt=new N;var qt={f:lt,i:q},Bt={f:lt,i:L};function Lt(t,n,r){return t.map((function(t){return function(t,n,r){var e=t.v;if(!e||"g"!==e.t||e.s||!e.v||!e.r)return t;var i=r.getElementById(e.r),o=i&&i.querySelectorAll("stop")||[];return e.s=e.v.map((function(t,n){var r=o[n]&&o[n].getAttribute("offset");return{c:t,o:r=p(parseInt(r)/100)}})),delete e.v,t}(t,0,r)}))}var Ct={gt:"gradientTransform",c:{x:"cx",y:"cy"},rd:"r",f:{x:"x1",y:"y1"},to:{x:"x2",y:"y2"}};function Dt(t,n,e,i,o,u,a,l){return Lt(t,0,l),n=function(t,n,r){for(var e,i,o,u=t.length-1,a={},l=0;l<=u;l++)(e=t[l]).e&&(e.e=n(e.e)),e.v&&"g"===(i=e.v).t&&i.r&&(o=r.getElementById(i.r))&&(a[i.r]={e:o,s:o.querySelectorAll("stop")});return a}(t,i,l),function(i){var o=e(i,t,zt);if(!o)return"none";if("c"===o.t)return st(o.v);if("g"===o.t){if(!n[o.r])return ct(o.r);var u=n[o.r];return function(t,n){for(var r=t.s,e=r.length;e<n.length;e++){var i=r[r.length-1].cloneNode();i.id=Yt(i.id),t.e.appendChild(i),r=t.s=t.e.querySelectorAll("stop")}for(var o=0,u=r.length,a=n.length-1;o<u;o++)r[o].setAttribute("stop-color",st(n[Math.min(o,a)].c)),r[o].setAttribute("offset",n[Math.min(o,a)].o)}(u,o.s),Object.keys(Ct).forEach((function(t){if(void 0!==o[t])if("object"!==r(Ct[t])){var n,e="gt"===t?(n=o[t],Array.isArray(n)?"matrix("+n.join(" ")+")":""):o[t],i=Ct[t];u.e.setAttribute(i,e)}else Object.keys(Ct[t]).forEach((function(n){if(void 0!==o[t][n]){var r=o[t][n],e=Ct[t][n];u.e.setAttribute(e,r)}}))})),ct(o.r)}return"none"}}function zt(t,r,e){if(0===t)return r;if(1===t)return e;if(r&&e){var i=r.t;if(i===e.t)switch(r.t){case"c":return{t:i,v:z(t,r.v,e.v)};case"g":if(r.r===e.r){var o={t:i,s:Vt(t,r.s,e.s),r:r.r};return r.gt&&e.gt&&(o.gt=function(t,n,r){var e=n.length;if(e!==r.length)return T(t,n,r);for(var i=new Array(e),o=0;o<e;o++)i[o]=q(t,n[o],r[o]);return i}(t,r.gt,e.gt)),r.c?(o.c=C(t,r.c,e.c),o.rd=B(t,r.rd,e.rd)):r.f&&(o.f=C(t,r.f,e.f),o.to=C(t,r.to,e.to)),o}}if("c"===r.t&&"g"===e.t||"c"===e.t&&"g"===r.t){var u="c"===r.t?r:e,a="g"===r.t?n({},r):n({},e),l=a.s.map((function(t){return{c:u.v,o:t.o}}));return a.s="c"===r.t?Vt(t,l,a.s):Vt(t,a.s,l),a}}return T(t,r,e)}function Vt(t,n,r){if(n.length===r.length)return n.map((function(n,e){return Gt(t,n,r[e])}));for(var e=Math.max(n.length,r.length),i=[],o=0;o<e;o++){var u=Gt(t,n[Math.min(o,n.length-1)],r[Math.min(o,r.length-1)]);i.push(u)}return i}function Gt(t,n,r){return{o:L(t,n.o,r.o||0),c:z(t,n.c,r.c||{})}}function Yt(t){return t.replace(/-fill-([0-9]+)$/,(function(t,n){return"-fill-"+(+n+1)}))}var $t={fill:Dt,"fill-opacity":Bt,stroke:Dt,"stroke-opacity":Bt,"stroke-width":qt,"stroke-dashoffset":{f:lt,i:q},"stroke-dasharray":{f:function(t){var n=arguments.length>1&&void 0!==arguments[1]?arguments[1]:" ";return t&&t.length>0&&(t=t.map((function(t){return p(t,4)}))),ft(t,n)},i:function(t,n,r){var e,i,o,u=n.length,a=r.length;if(u!==a)if(0===u)n=V(u=a,0);else if(0===a)a=u,r=V(u,0);else{var l=(o=(e=u)*(i=a)/function(t,n){for(var r;n;)r=n,n=t%n,t=r;return t||1}(e,i))<0?-o:o;n=G(n,Math.floor(l/u)),r=G(r,Math.floor(l/a)),u=a=l}for(var f=[],s=0;s<u;s++)f.push(p(B(t,n[s],r[s])));return f}},opacity:Bt,transform:function(t,n,e,i){if(!(t=function(t,n){if(!t||"object"!==r(t))return null;var e=!1;for(var i in t)t.hasOwnProperty(i)&&(t[i]&&t[i].length?(t[i].forEach((function(t){t.e&&(t.e=n(t.e))})),e=!0):delete t[i]);return e?t:null}(t,i)))return null;var o=function(r,i,o){var u=arguments.length>3&&void 0!==arguments[3]?arguments[3]:null;return t[r]?e(i,t[r],o):n&&n[r]?n[r]:u};return n&&n.a&&t.o?function(n){var r=e(n,t.o,Rt);return Tt.recomposeSelf(r,o("r",n,q,0)+r.a,o("k",n,C),o("s",n,C),o("t",n,C)).toString()}:function(t){return Tt.recomposeSelf(o("o",t,It,null),o("r",t,q,0),o("k",t,C),o("s",t,C),o("t",t,C)).toString()}},r:qt,"#size":vt,"#radius":ht,_:function(t,n){if(Array.isArray(t))for(var r=0;r<t.length;r++)this[t[r]]=n;else this[t]=n}},Ut=function(t){!function(t,n){if("function"!=typeof n&&null!==n)throw new TypeError("Super expression must either be null or a function");t.prototype=Object.create(n&&n.prototype,{constructor:{value:t,writable:!0,configurable:!0}}),n&&l(t,n)}(u,t);var n,r,i=(n=u,r=f(),function(){var t,e=a(n);if(r){var i=a(this).constructor;t=Reflect.construct(e,arguments,i)}else t=e.apply(this,arguments);return c(this,t)});function u(){return e(this,u),i.apply(this,arguments)}return o(u,null,[{key:"build",value:function(t){var n=h(a(u),"build",this).call(this,t,$t);if(!n)return null;n.el,n.options,function(t,n,r){t.play()}(n.player)}}]),u}(at);return Ut.init(),Ut}));
(function(s,i,o,w,a,b){w[o]=w[o]||{};w[o][s]=w[o][s]||[];w[o][s].push(i);})('5c7f360c',{"root":"ew8Svf1dVbG1","animations":[{"elements":{"ew8Svf1dVbG3":{"transform":{"data":{"t":{"x":-320.349998,"y":-104.249996}},"keys":{"o":[{"t":0,"v":{"x":320.349998,"y":134.049999,"type":"corner"},"e":[0,0,0.58,1]},{"t":300,"v":{"x":320.349998,"y":104.249999,"type":"corner"},"e":[0.42,0,1,1]}]}},"opacity":[{"t":0,"v":0,"e":[0,0,0.58,1]},{"t":300,"v":1,"e":[0.42,0,1,1]},{"t":4500,"v":1,"e":[0,0,0.58,1]},{"t":4900,"v":0}]},"ew8Svf1dVbG35":{"transform":{"data":{"t":{"x":-522.150005,"y":-177.802689}},"keys":{"o":[{"t":900,"v":{"x":520.450004,"y":204.102692,"type":"corner"},"e":[0,0,0.58,1]},{"t":1200,"v":{"x":520.450004,"y":174.494614,"type":"corner"}}]}},"opacity":[{"t":900,"v":0,"e":[0,0,0.58,1]},{"t":1200,"v":1,"e":[0.42,0,1,1]},{"t":4500,"v":1,"e":[0,0,0.58,1]},{"t":4900,"v":0}]},"ew8Svf1dVbG85":{"transform":{"data":{"t":{"x":-374.250011,"y":-254.109436}},"keys":{"o":[{"t":1900,"v":{"x":372.55001,"y":274.109436,"type":"corner"},"e":[0,0,0.58,1]},{"t":2200,"v":{"x":372.55001,"y":244.798645,"type":"corner"}}]}},"opacity":[{"t":1900,"v":0,"e":[0,0,0.58,1]},{"t":2200,"v":1},{"t":4500,"v":1,"e":[0,0,0.58,1]},{"t":4900,"v":0}]},"ew8Svf1dVbG122":{"transform":{"data":{"t":{"x":-548.449951,"y":-315.102646}},"keys":{"o":[{"t":2900,"v":{"x":546.549949,"y":345.102646,"type":"corner"},"e":[0,0,0.58,1]},{"t":3200,"v":{"x":546.549949,"y":315.102646,"type":"corner"}}]}},"opacity":[{"t":2900,"v":0,"e":[0,0,0.58,1]},{"t":3200,"v":1,"e":[0.42,0,1,1]},{"t":4500,"v":1,"e":[0,0,0.58,1]},{"t":4900,"v":0}]},"ew8Svf1dVbG174":{"transform":{"data":{"t":{"x":-591.950031,"y":-313.651261}},"keys":{"o":[{"t":5500,"v":{"x":585.799998,"y":663.263002,"type":"corner"},"e":[0.39,0.575,0.565,1]},{"t":5900,"v":{"x":585.799998,"y":622.01088,"type":"corner"},"e":[0.39,0.575,0.565,1]},{"t":6400,"v":{"x":585.799998,"y":622.01088,"type":"corner","start":{"x":585.799998,"y":622.01088},"end":{"x":585.799998,"y":622.01088}},"e":[0.39,0.575,0.565,1]},{"t":6800,"v":{"x":587.800036,"y":539.506644,"type":"corner","start":{"x":587.800036,"y":539.506644}},"e":[0.39,0.575,0.565,1]},{"t":7400,"v":{"x":587.800036,"y":539.506644,"type":"corner","start":{"x":587.800036,"y":539.506644},"end":{"x":587.800036,"y":539.506644}},"e":[0.39,0.575,0.565,1]},{"t":7800,"v":{"x":590.699999,"y":432.344175,"type":"corner","start":{"x":590.699999,"y":432.344175}},"e":[0.39,0.575,0.565,1]},{"t":8500,"v":{"x":590.699999,"y":432.344175,"type":"corner","start":{"x":590.699999,"y":432.344175},"end":{"x":590.699999,"y":432.344175}},"e":[0.39,0.575,0.565,1]},{"t":8900,"v":{"x":590.699999,"y":318.752372,"type":"corner","start":{"x":590.699999,"y":318.752372}}}]}}},"ew8Svf1dVbG175":{"opacity":[{"t":5500,"v":0,"e":[0,0,0.58,1]},{"t":5900,"v":1},{"t":9700,"v":1,"e":[0.39,0.575,0.565,1]},{"t":10000,"v":0}]},"ew8Svf1dVbG184":{"opacity":[{"t":6400,"v":0,"e":[0,0,0.58,1]},{"t":6800,"v":1},{"t":9700,"v":1,"e":[0.39,0.575,0.565,1]},{"t":10000,"v":0}]},"ew8Svf1dVbG191":{"opacity":[{"t":8500,"v":0,"e":[0,0,0.58,1]},{"t":8900,"v":1},{"t":9700,"v":1,"e":[0.39,0.575,0.565,1]},{"t":10000,"v":0}]},"ew8Svf1dVbG198":{"opacity":[{"t":7400,"v":0,"e":[0,0,0.58,1]},{"t":7800,"v":1},{"t":9700,"v":1,"e":[0.39,0.575,0.565,1]},{"t":10000,"v":0}]}},"s":"MADA1NGE4NGY5MWEySDDlmOGVhMTk2OWM5YjREmNjc1ZTVkNWQ1ZDVkBNTk0Zk45MTk2OWY5MJjkwYTFWOTY5Y0U5YjJRmNjc1ZTU5TkY0ZjkD2U2ExOTI5ZjhlYTE5UNjljOWJhMDRmNjc1ZVDU5NGY5Mzk2OTk5OTHRmSjY3NWU1OTRmOGVKTOTlhMTkyOWY5YjhlGYTE5MjRmNjdIOTM4ZFTk5YTA5MjU5NGZhMDWlkOTI5MjkxNGZONjcM1ZVBhYQ|"}],"options":"MWDAxMDg4MmY4MFg4MTQZlN2Y4MTJmNDcyZjcU5N2M2ZTcxMmY4YQ|"},'__SVGATOR_PLAYER__',window)]]></script></svg>